<mxfile host="app.diagrams.net" agent="Mozilla/5.0 (Windows NT 10.0; Win64; x64) AppleWebKit/537.36 (KHTML, like Gecko) Chrome/136.0.0.0 Safari/537.36" version="27.0.3">
  <diagram id="R2lEEEUBdFMjLlhIrx00" name="Page-1">
    <mxGraphModel dx="1205" dy="1695" grid="1" gridSize="10" guides="1" tooltips="1" connect="1" arrows="1" fold="1" page="1" pageScale="1" pageWidth="850" pageHeight="1100" math="0" shadow="0" extFonts="Permanent Marker^https://fonts.googleapis.com/css?family=Permanent+Marker">
      <root>
        <mxCell id="0" />
        <mxCell id="1" parent="0" />
        <mxCell id="e1q9ZwAMUpWzCuDyqHRW-1" value="&lt;b&gt;&lt;font style=&quot;font-size: 23px;&quot;&gt;User&lt;/font&gt;&lt;/b&gt;" style="rounded=1;whiteSpace=wrap;html=1;" parent="1" vertex="1">
          <mxGeometry x="1485" y="-170" width="105" height="50" as="geometry" />
        </mxCell>
        <mxCell id="e1q9ZwAMUpWzCuDyqHRW-2" value="&lt;u&gt;&lt;font style=&quot;font-size: 15px;&quot;&gt;S_ID&lt;/font&gt;&lt;/u&gt;" style="ellipse;whiteSpace=wrap;html=1;" parent="1" vertex="1">
          <mxGeometry x="1460" y="-280" width="55" height="30" as="geometry" />
        </mxCell>
        <mxCell id="e1q9ZwAMUpWzCuDyqHRW-3" value="" style="endArrow=none;html=1;rounded=0;" parent="1" edge="1">
          <mxGeometry width="50" height="50" relative="1" as="geometry">
            <mxPoint x="1480" y="-250" as="sourcePoint" />
            <mxPoint x="1540" y="-170" as="targetPoint" />
            <Array as="points">
              <mxPoint x="1480" y="-220" />
              <mxPoint x="1540" y="-220" />
            </Array>
          </mxGeometry>
        </mxCell>
        <mxCell id="e1q9ZwAMUpWzCuDyqHRW-4" value="&lt;font style=&quot;font-size: 15px;&quot;&gt;User_Name&lt;/font&gt;" style="ellipse;whiteSpace=wrap;html=1;" parent="1" vertex="1">
          <mxGeometry x="1517.5" y="-290" width="105" height="30" as="geometry" />
        </mxCell>
        <mxCell id="e1q9ZwAMUpWzCuDyqHRW-5" value="" style="endArrow=none;html=1;rounded=0;exitX=0.695;exitY=0.008;exitDx=0;exitDy=0;exitPerimeter=0;" parent="1" source="e1q9ZwAMUpWzCuDyqHRW-1" edge="1">
          <mxGeometry width="50" height="50" relative="1" as="geometry">
            <mxPoint x="1510" y="-170" as="sourcePoint" />
            <mxPoint x="1558" y="-260" as="targetPoint" />
          </mxGeometry>
        </mxCell>
        <mxCell id="e1q9ZwAMUpWzCuDyqHRW-6" value="&lt;font style=&quot;font-size: 15px;&quot;&gt;Email&lt;/font&gt;" style="ellipse;whiteSpace=wrap;html=1;" parent="1" vertex="1">
          <mxGeometry x="1650" y="-230" width="70" height="30" as="geometry" />
        </mxCell>
        <mxCell id="e1q9ZwAMUpWzCuDyqHRW-7" value="" style="endArrow=none;html=1;rounded=0;exitX=1;exitY=0.2;exitDx=0;exitDy=0;entryX=0.351;entryY=0.996;entryDx=0;entryDy=0;entryPerimeter=0;exitPerimeter=0;" parent="1" source="e1q9ZwAMUpWzCuDyqHRW-1" target="e1q9ZwAMUpWzCuDyqHRW-6" edge="1">
          <mxGeometry width="50" height="50" relative="1" as="geometry">
            <mxPoint x="1610" y="-120" as="sourcePoint" />
            <mxPoint x="1670" y="-200" as="targetPoint" />
            <Array as="points">
              <mxPoint x="1675" y="-160" />
            </Array>
          </mxGeometry>
        </mxCell>
        <mxCell id="e1q9ZwAMUpWzCuDyqHRW-8" value="&lt;font style=&quot;font-size: 15px;&quot;&gt;Password&lt;/font&gt;" style="ellipse;whiteSpace=wrap;html=1;" parent="1" vertex="1">
          <mxGeometry x="1380" y="-300" width="85" height="30" as="geometry" />
        </mxCell>
        <mxCell id="e1q9ZwAMUpWzCuDyqHRW-9" value="" style="endArrow=none;html=1;rounded=0;entryX=0.25;entryY=0;entryDx=0;entryDy=0;" parent="1" target="e1q9ZwAMUpWzCuDyqHRW-1" edge="1">
          <mxGeometry width="50" height="50" relative="1" as="geometry">
            <mxPoint x="1420" y="-270" as="sourcePoint" />
            <mxPoint x="1490" y="-160" as="targetPoint" />
            <Array as="points">
              <mxPoint x="1420" y="-210" />
              <mxPoint x="1511" y="-210" />
            </Array>
          </mxGeometry>
        </mxCell>
        <mxCell id="e1q9ZwAMUpWzCuDyqHRW-10" value="&lt;font style=&quot;font-size: 15px;&quot;&gt;Role&lt;/font&gt;" style="ellipse;whiteSpace=wrap;html=1;" parent="1" vertex="1">
          <mxGeometry x="1690" y="-200" width="70" height="30" as="geometry" />
        </mxCell>
        <mxCell id="e1q9ZwAMUpWzCuDyqHRW-11" value="" style="endArrow=none;html=1;rounded=0;exitX=1;exitY=0.5;exitDx=0;exitDy=0;" parent="1" source="e1q9ZwAMUpWzCuDyqHRW-1" edge="1">
          <mxGeometry width="50" height="50" relative="1" as="geometry">
            <mxPoint x="1640" y="-162.5" as="sourcePoint" />
            <mxPoint x="1710" y="-170" as="targetPoint" />
            <Array as="points">
              <mxPoint x="1710" y="-145" />
            </Array>
          </mxGeometry>
        </mxCell>
        <mxCell id="e1q9ZwAMUpWzCuDyqHRW-16" value="&lt;font style=&quot;font-size: 15px;&quot;&gt;Contact #&lt;/font&gt;" style="ellipse;whiteSpace=wrap;html=1;" parent="1" vertex="1">
          <mxGeometry x="1315" y="-260" width="85" height="30" as="geometry" />
        </mxCell>
        <mxCell id="e1q9ZwAMUpWzCuDyqHRW-17" value="" style="endArrow=none;html=1;rounded=0;exitX=0.146;exitY=0.002;exitDx=0;exitDy=0;exitPerimeter=0;entryX=0.41;entryY=0.982;entryDx=0;entryDy=0;entryPerimeter=0;" parent="1" source="e1q9ZwAMUpWzCuDyqHRW-1" target="e1q9ZwAMUpWzCuDyqHRW-16" edge="1">
          <mxGeometry width="50" height="50" relative="1" as="geometry">
            <mxPoint x="1480" y="-150" as="sourcePoint" />
            <mxPoint x="1355" y="-230" as="targetPoint" />
            <Array as="points">
              <mxPoint x="1500" y="-200" />
              <mxPoint x="1350" y="-200" />
            </Array>
          </mxGeometry>
        </mxCell>
        <mxCell id="e1q9ZwAMUpWzCuDyqHRW-18" value="&lt;b&gt;&lt;font style=&quot;font-size: 23px;&quot;&gt;Service Provider&lt;/font&gt;&lt;/b&gt;" style="rounded=1;whiteSpace=wrap;html=1;" parent="1" vertex="1">
          <mxGeometry x="1920" y="100" width="210" height="50" as="geometry" />
        </mxCell>
        <mxCell id="e1q9ZwAMUpWzCuDyqHRW-19" value="&lt;font style=&quot;font-size: 15px;&quot;&gt;Provider_Name&lt;/font&gt;" style="ellipse;whiteSpace=wrap;html=1;" parent="1" vertex="1">
          <mxGeometry x="1740" y="130" width="120" height="30" as="geometry" />
        </mxCell>
        <mxCell id="e1q9ZwAMUpWzCuDyqHRW-20" value="&lt;font style=&quot;font-size: 15px;&quot;&gt;Provider-Type&lt;/font&gt;" style="ellipse;whiteSpace=wrap;html=1;" parent="1" vertex="1">
          <mxGeometry x="1780" y="75" width="110" height="30" as="geometry" />
        </mxCell>
        <mxCell id="e1q9ZwAMUpWzCuDyqHRW-21" value="" style="endArrow=none;html=1;rounded=0;exitX=0.5;exitY=1;exitDx=0;exitDy=0;" parent="1" source="e1q9ZwAMUpWzCuDyqHRW-20" edge="1">
          <mxGeometry width="50" height="50" relative="1" as="geometry">
            <mxPoint x="1870" y="165" as="sourcePoint" />
            <mxPoint x="1920" y="110" as="targetPoint" />
            <Array as="points">
              <mxPoint x="1835" y="120" />
              <mxPoint x="1900" y="120" />
              <mxPoint x="1900" y="110" />
            </Array>
          </mxGeometry>
        </mxCell>
        <mxCell id="e1q9ZwAMUpWzCuDyqHRW-22" value="&lt;span style=&quot;font-size: 15px;&quot;&gt;License_no&lt;/span&gt;" style="ellipse;whiteSpace=wrap;html=1;" parent="1" vertex="1">
          <mxGeometry x="2150" y="20" width="90" height="30" as="geometry" />
        </mxCell>
        <mxCell id="e1q9ZwAMUpWzCuDyqHRW-24" value="" style="endArrow=none;html=1;rounded=0;exitX=1;exitY=0.5;exitDx=0;exitDy=0;entryX=0.25;entryY=1;entryDx=0;entryDy=0;" parent="1" target="e1q9ZwAMUpWzCuDyqHRW-18" edge="1">
          <mxGeometry width="50" height="50" relative="1" as="geometry">
            <mxPoint x="1789.9999999999973" y="160" as="sourcePoint" />
            <mxPoint x="1860" y="185" as="targetPoint" />
            <Array as="points">
              <mxPoint x="1790" y="180" />
              <mxPoint x="1973" y="180" />
            </Array>
          </mxGeometry>
        </mxCell>
        <mxCell id="e1q9ZwAMUpWzCuDyqHRW-25" value="" style="endArrow=none;html=1;rounded=0;" parent="1" edge="1">
          <mxGeometry width="50" height="50" relative="1" as="geometry">
            <mxPoint x="2130" y="110" as="sourcePoint" />
            <mxPoint x="2200" y="50" as="targetPoint" />
            <Array as="points">
              <mxPoint x="2200" y="110" />
            </Array>
          </mxGeometry>
        </mxCell>
        <mxCell id="e1q9ZwAMUpWzCuDyqHRW-27" value="&lt;font style=&quot;font-size: 23px;&quot;&gt;&lt;b style=&quot;&quot;&gt;Location&lt;/b&gt;&lt;/font&gt;" style="rounded=0;whiteSpace=wrap;html=1;" parent="1" vertex="1">
          <mxGeometry x="1800" y="1150" width="120" height="60" as="geometry" />
        </mxCell>
        <mxCell id="e1q9ZwAMUpWzCuDyqHRW-28" value="&lt;font style=&quot;font-size: 15px;&quot;&gt;&lt;u&gt;L_Id&lt;/u&gt;&lt;/font&gt;" style="ellipse;whiteSpace=wrap;html=1;" parent="1" vertex="1">
          <mxGeometry x="1760" y="1085" width="60" height="30" as="geometry" />
        </mxCell>
        <mxCell id="e1q9ZwAMUpWzCuDyqHRW-29" value="&lt;font style=&quot;font-size: 15px;&quot;&gt;City&lt;/font&gt;" style="ellipse;whiteSpace=wrap;html=1;" parent="1" vertex="1">
          <mxGeometry x="1800" y="1030" width="60" height="30" as="geometry" />
        </mxCell>
        <mxCell id="e1q9ZwAMUpWzCuDyqHRW-30" value="&lt;font style=&quot;font-size: 15px;&quot;&gt;Country&lt;/font&gt;" style="ellipse;whiteSpace=wrap;html=1;" parent="1" vertex="1">
          <mxGeometry x="1890" y="1060" width="60" height="30" as="geometry" />
        </mxCell>
        <mxCell id="e1q9ZwAMUpWzCuDyqHRW-31" value="&lt;font style=&quot;font-size: 15px;&quot;&gt;Description&lt;/font&gt;" style="ellipse;whiteSpace=wrap;html=1;" parent="1" vertex="1">
          <mxGeometry x="1940" y="1100" width="85" height="30" as="geometry" />
        </mxCell>
        <mxCell id="e1q9ZwAMUpWzCuDyqHRW-32" value="" style="endArrow=none;html=1;rounded=0;exitX=0.378;exitY=-0.009;exitDx=0;exitDy=0;exitPerimeter=0;" parent="1" edge="1">
          <mxGeometry width="50" height="50" relative="1" as="geometry">
            <mxPoint x="1845.3600000000001" y="1149.46" as="sourcePoint" />
            <mxPoint x="1790" y="1115" as="targetPoint" />
            <Array as="points">
              <mxPoint x="1845" y="1140" />
              <mxPoint x="1790" y="1140" />
            </Array>
          </mxGeometry>
        </mxCell>
        <mxCell id="e1q9ZwAMUpWzCuDyqHRW-33" value="" style="endArrow=none;html=1;rounded=0;exitX=0.5;exitY=0;exitDx=0;exitDy=0;" parent="1" edge="1">
          <mxGeometry width="50" height="50" relative="1" as="geometry">
            <mxPoint x="1860" y="1150" as="sourcePoint" />
            <mxPoint x="1830" y="1060" as="targetPoint" />
            <Array as="points">
              <mxPoint x="1860" y="1100" />
              <mxPoint x="1830" y="1100" />
            </Array>
          </mxGeometry>
        </mxCell>
        <mxCell id="e1q9ZwAMUpWzCuDyqHRW-34" value="" style="endArrow=none;html=1;rounded=0;" parent="1" edge="1">
          <mxGeometry width="50" height="50" relative="1" as="geometry">
            <mxPoint x="1870" y="1150" as="sourcePoint" />
            <mxPoint x="1920" y="1090" as="targetPoint" />
            <Array as="points">
              <mxPoint x="1870" y="1120" />
              <mxPoint x="1920" y="1120" />
            </Array>
          </mxGeometry>
        </mxCell>
        <mxCell id="e1q9ZwAMUpWzCuDyqHRW-35" value="" style="endArrow=none;html=1;rounded=0;exitX=1.004;exitY=0.177;exitDx=0;exitDy=0;exitPerimeter=0;" parent="1" edge="1">
          <mxGeometry width="50" height="50" relative="1" as="geometry">
            <mxPoint x="1920.4800000000005" y="1160.62" as="sourcePoint" />
            <mxPoint x="1980" y="1130" as="targetPoint" />
            <Array as="points">
              <mxPoint x="1980" y="1160" />
            </Array>
          </mxGeometry>
        </mxCell>
        <mxCell id="e1q9ZwAMUpWzCuDyqHRW-36" value="&lt;font style=&quot;font-size: 23px;&quot;&gt;&lt;b&gt;Locate At&lt;/b&gt;&lt;/font&gt;" style="rhombus;whiteSpace=wrap;html=1;" parent="1" vertex="1">
          <mxGeometry x="1610" y="970" width="140" height="80" as="geometry" />
        </mxCell>
        <mxCell id="e1q9ZwAMUpWzCuDyqHRW-37" value="&lt;b&gt;&lt;font style=&quot;font-size: 15px;&quot;&gt;M&lt;/font&gt;&lt;/b&gt;" style="endArrow=none;html=1;rounded=0;entryX=0;entryY=0.5;entryDx=0;entryDy=0;shape=link;" parent="1" edge="1">
          <mxGeometry width="50" height="50" relative="1" as="geometry">
            <mxPoint x="1750" y="1010" as="sourcePoint" />
            <mxPoint x="1800" y="1180" as="targetPoint" />
            <Array as="points">
              <mxPoint x="1790" y="1010" />
              <mxPoint x="1790" y="1060" />
              <mxPoint x="1720" y="1060" />
              <mxPoint x="1720" y="1180" />
            </Array>
          </mxGeometry>
        </mxCell>
        <mxCell id="e1q9ZwAMUpWzCuDyqHRW-38" value="&lt;b&gt;&lt;font style=&quot;font-size: 15px;&quot;&gt;1&lt;/font&gt;&lt;/b&gt;" style="endArrow=none;html=1;rounded=0;entryX=0.5;entryY=0;entryDx=0;entryDy=0;exitX=0.603;exitY=-0.012;exitDx=0;exitDy=0;exitPerimeter=0;" parent="1" source="e1q9ZwAMUpWzCuDyqHRW-18" target="e1q9ZwAMUpWzCuDyqHRW-36" edge="1">
          <mxGeometry width="50" height="50" relative="1" as="geometry">
            <mxPoint x="2305" y="89" as="sourcePoint" />
            <mxPoint x="2675" y="960" as="targetPoint" />
            <Array as="points">
              <mxPoint x="2047" y="-80" />
              <mxPoint x="2170" y="-80" />
              <mxPoint x="2435" y="-80" />
              <mxPoint x="2720" y="-80" />
              <mxPoint x="2720" y="880" />
              <mxPoint x="2490" y="880" />
              <mxPoint x="1680" y="880" />
            </Array>
          </mxGeometry>
        </mxCell>
        <mxCell id="e1q9ZwAMUpWzCuDyqHRW-39" value="&lt;b&gt;&lt;font style=&quot;font-size: 23px;&quot;&gt;Trip&lt;/font&gt;&lt;/b&gt;" style="rounded=1;whiteSpace=wrap;html=1;" parent="1" vertex="1">
          <mxGeometry x="1310" y="1075" width="110" height="50" as="geometry" />
        </mxCell>
        <mxCell id="e1q9ZwAMUpWzCuDyqHRW-40" value="&lt;u&gt;&lt;font style=&quot;font-size: 15px;&quot;&gt;Trip_ID&lt;/font&gt;&lt;/u&gt;" style="ellipse;whiteSpace=wrap;html=1;" parent="1" vertex="1">
          <mxGeometry x="1180" y="1055" width="60" height="30" as="geometry" />
        </mxCell>
        <mxCell id="e1q9ZwAMUpWzCuDyqHRW-41" value="" style="endArrow=none;html=1;rounded=0;exitX=1;exitY=0.5;exitDx=0;exitDy=0;entryX=0;entryY=0.304;entryDx=0;entryDy=0;entryPerimeter=0;" parent="1" source="e1q9ZwAMUpWzCuDyqHRW-40" target="e1q9ZwAMUpWzCuDyqHRW-39" edge="1">
          <mxGeometry width="50" height="50" relative="1" as="geometry">
            <mxPoint x="1270" y="1125" as="sourcePoint" />
            <mxPoint x="1320" y="1075" as="targetPoint" />
            <Array as="points">
              <mxPoint x="1280" y="1070" />
              <mxPoint x="1280" y="1090" />
            </Array>
          </mxGeometry>
        </mxCell>
        <mxCell id="e1q9ZwAMUpWzCuDyqHRW-42" value="&lt;font style=&quot;font-size: 15px;&quot;&gt;Title&lt;/font&gt;" style="ellipse;whiteSpace=wrap;html=1;" parent="1" vertex="1">
          <mxGeometry x="1180" y="1125" width="50" height="30" as="geometry" />
        </mxCell>
        <mxCell id="e1q9ZwAMUpWzCuDyqHRW-43" value="" style="endArrow=none;html=1;rounded=0;exitX=1;exitY=0.5;exitDx=0;exitDy=0;entryX=0;entryY=0.75;entryDx=0;entryDy=0;" parent="1" source="e1q9ZwAMUpWzCuDyqHRW-42" target="e1q9ZwAMUpWzCuDyqHRW-39" edge="1">
          <mxGeometry width="50" height="50" relative="1" as="geometry">
            <mxPoint x="1270" y="1155" as="sourcePoint" />
            <mxPoint x="1320" y="1105" as="targetPoint" />
            <Array as="points">
              <mxPoint x="1270" y="1140" />
              <mxPoint x="1270" y="1113" />
            </Array>
          </mxGeometry>
        </mxCell>
        <mxCell id="e1q9ZwAMUpWzCuDyqHRW-46" value="&lt;font style=&quot;font-size: 15px;&quot;&gt;Date&lt;/font&gt;" style="ellipse;whiteSpace=wrap;html=1;" parent="1" vertex="1">
          <mxGeometry x="1335" y="1225" width="50" height="30" as="geometry" />
        </mxCell>
        <mxCell id="e1q9ZwAMUpWzCuDyqHRW-48" value="" style="endArrow=none;html=1;rounded=0;exitX=0.5;exitY=0;exitDx=0;exitDy=0;" parent="1" source="e1q9ZwAMUpWzCuDyqHRW-46" edge="1">
          <mxGeometry width="50" height="50" relative="1" as="geometry">
            <mxPoint x="1310" y="1175" as="sourcePoint" />
            <mxPoint x="1360" y="1125" as="targetPoint" />
          </mxGeometry>
        </mxCell>
        <mxCell id="e1q9ZwAMUpWzCuDyqHRW-50" value="&lt;font style=&quot;font-size: 15px;&quot;&gt;Price&lt;/font&gt;" style="ellipse;whiteSpace=wrap;html=1;" parent="1" vertex="1">
          <mxGeometry x="1450" y="1125" width="50" height="30" as="geometry" />
        </mxCell>
        <mxCell id="e1q9ZwAMUpWzCuDyqHRW-51" value="" style="endArrow=none;html=1;rounded=0;entryX=0.75;entryY=1;entryDx=0;entryDy=0;" parent="1" source="e1q9ZwAMUpWzCuDyqHRW-50" target="e1q9ZwAMUpWzCuDyqHRW-39" edge="1">
          <mxGeometry width="50" height="50" relative="1" as="geometry">
            <mxPoint x="1480" y="1225" as="sourcePoint" />
            <mxPoint x="1530" y="1175" as="targetPoint" />
            <Array as="points">
              <mxPoint x="1393" y="1140" />
            </Array>
          </mxGeometry>
        </mxCell>
        <mxCell id="e1q9ZwAMUpWzCuDyqHRW-57" value="&lt;b&gt;&lt;font style=&quot;font-size: 23px;&quot;&gt;Has&lt;/font&gt;&lt;/b&gt;" style="rhombus;whiteSpace=wrap;html=1;" parent="1" vertex="1">
          <mxGeometry x="1800" y="1270" width="80" height="80" as="geometry" />
        </mxCell>
        <mxCell id="e1q9ZwAMUpWzCuDyqHRW-75" value="&lt;font style=&quot;font-size: 15px;&quot;&gt;&lt;b&gt;1&lt;/b&gt;&lt;/font&gt;" style="endArrow=none;html=1;rounded=0;entryX=0.5;entryY=1;entryDx=0;entryDy=0;exitX=1;exitY=0.75;exitDx=0;exitDy=0;" parent="1" source="e1q9ZwAMUpWzCuDyqHRW-39" target="e1q9ZwAMUpWzCuDyqHRW-57" edge="1">
          <mxGeometry width="50" height="50" relative="1" as="geometry">
            <mxPoint x="1290" y="1390" as="sourcePoint" />
            <mxPoint x="3320" y="827.5" as="targetPoint" />
            <Array as="points">
              <mxPoint x="1550" y="1113" />
              <mxPoint x="1550" y="1400" />
              <mxPoint x="1830" y="1400" />
              <mxPoint x="1840" y="1400" />
            </Array>
          </mxGeometry>
        </mxCell>
        <mxCell id="e1q9ZwAMUpWzCuDyqHRW-91" value="&lt;b&gt;&lt;font style=&quot;font-size: 15px;&quot;&gt;1&lt;/font&gt;&lt;/b&gt;" style="endArrow=none;html=1;rounded=0;entryX=0.333;entryY=1;entryDx=0;entryDy=0;entryPerimeter=0;shape=link;" parent="1" target="e1q9ZwAMUpWzCuDyqHRW-27" edge="1">
          <mxGeometry width="50" height="50" relative="1" as="geometry">
            <mxPoint x="1840" y="1270" as="sourcePoint" />
            <mxPoint x="1890" y="1220" as="targetPoint" />
          </mxGeometry>
        </mxCell>
        <mxCell id="e1q9ZwAMUpWzCuDyqHRW-92" value="&lt;b&gt;&lt;font style=&quot;font-size: 23px;&quot;&gt;d&lt;/font&gt;&lt;/b&gt;" style="ellipse;whiteSpace=wrap;html=1;" parent="1" vertex="1">
          <mxGeometry x="1525" y="30" width="28" height="30" as="geometry" />
        </mxCell>
        <mxCell id="e1q9ZwAMUpWzCuDyqHRW-93" value="" style="endArrow=none;html=1;rounded=0;entryX=0.537;entryY=1.025;entryDx=0;entryDy=0;entryPerimeter=0;" parent="1" target="e1q9ZwAMUpWzCuDyqHRW-1" edge="1">
          <mxGeometry width="50" height="50" relative="1" as="geometry">
            <mxPoint x="1540" y="30" as="sourcePoint" />
            <mxPoint x="1537.5" y="-120" as="targetPoint" />
          </mxGeometry>
        </mxCell>
        <mxCell id="e1q9ZwAMUpWzCuDyqHRW-94" value="" style="endArrow=none;html=1;rounded=0;entryX=0.977;entryY=0.326;entryDx=0;entryDy=0;entryPerimeter=0;" parent="1" target="e1q9ZwAMUpWzCuDyqHRW-92" edge="1">
          <mxGeometry width="50" height="50" relative="1" as="geometry">
            <mxPoint x="1970" y="100" as="sourcePoint" />
            <mxPoint x="1554" y="40" as="targetPoint" />
            <Array as="points">
              <mxPoint x="1970" y="40" />
            </Array>
          </mxGeometry>
        </mxCell>
        <mxCell id="e1q9ZwAMUpWzCuDyqHRW-95" value="&lt;b&gt;&lt;font style=&quot;font-size: 23px;&quot;&gt;Traveler&amp;nbsp;&lt;/font&gt;&lt;/b&gt;" style="rounded=1;whiteSpace=wrap;html=1;" parent="1" vertex="1">
          <mxGeometry x="870" y="-20" width="110" height="50" as="geometry" />
        </mxCell>
        <mxCell id="e1q9ZwAMUpWzCuDyqHRW-99" value="" style="endArrow=none;html=1;rounded=0;entryX=0.362;entryY=-0.001;entryDx=0;entryDy=0;entryPerimeter=0;" parent="1" target="e1q9ZwAMUpWzCuDyqHRW-95" edge="1">
          <mxGeometry width="50" height="50" relative="1" as="geometry">
            <mxPoint x="740" y="-50" as="sourcePoint" />
            <mxPoint x="880" y="-30" as="targetPoint" />
            <Array as="points">
              <mxPoint x="740" y="-30" />
              <mxPoint x="910" y="-30" />
            </Array>
          </mxGeometry>
        </mxCell>
        <mxCell id="e1q9ZwAMUpWzCuDyqHRW-102" value="&lt;font style=&quot;font-size: 15px;&quot;&gt;CreatedAt&lt;/font&gt;" style="ellipse;whiteSpace=wrap;html=1;" parent="1" vertex="1">
          <mxGeometry x="1350" y="-185" width="125" height="40" as="geometry" />
        </mxCell>
        <mxCell id="e1q9ZwAMUpWzCuDyqHRW-103" value="" style="endArrow=none;html=1;rounded=0;exitX=-0.002;exitY=0.795;exitDx=0;exitDy=0;exitPerimeter=0;" parent="1" source="e1q9ZwAMUpWzCuDyqHRW-1" edge="1">
          <mxGeometry width="50" height="50" relative="1" as="geometry">
            <mxPoint x="1484" y="-130" as="sourcePoint" />
            <mxPoint x="1410" y="-145" as="targetPoint" />
            <Array as="points">
              <mxPoint x="1410" y="-130" />
            </Array>
          </mxGeometry>
        </mxCell>
        <mxCell id="e1q9ZwAMUpWzCuDyqHRW-104" value="&lt;font style=&quot;font-size: 15px;&quot;&gt;CNIC&lt;/font&gt;" style="ellipse;whiteSpace=wrap;html=1;" parent="1" vertex="1">
          <mxGeometry x="860" y="69.65" width="80" height="30" as="geometry" />
        </mxCell>
        <mxCell id="e1q9ZwAMUpWzCuDyqHRW-105" value="" style="endArrow=none;html=1;rounded=0;entryX=0.286;entryY=1.007;entryDx=0;entryDy=0;entryPerimeter=0;" parent="1" edge="1">
          <mxGeometry width="50" height="50" relative="1" as="geometry">
            <mxPoint x="901" y="70" as="sourcePoint" />
            <mxPoint x="901.46" y="29.999999999999908" as="targetPoint" />
          </mxGeometry>
        </mxCell>
        <mxCell id="e1q9ZwAMUpWzCuDyqHRW-106" value="" style="endArrow=none;html=1;rounded=0;entryX=0.041;entryY=0.313;entryDx=0;entryDy=0;entryPerimeter=0;exitX=0.727;exitY=0;exitDx=0;exitDy=0;exitPerimeter=0;" parent="1" source="e1q9ZwAMUpWzCuDyqHRW-95" target="e1q9ZwAMUpWzCuDyqHRW-92" edge="1">
          <mxGeometry width="50" height="50" relative="1" as="geometry">
            <mxPoint x="960" y="-40" as="sourcePoint" />
            <mxPoint x="1520" y="40" as="targetPoint" />
            <Array as="points">
              <mxPoint x="950" y="-40" />
              <mxPoint x="1440" y="-40" />
              <mxPoint x="1440" y="40" />
            </Array>
          </mxGeometry>
        </mxCell>
        <mxCell id="e1q9ZwAMUpWzCuDyqHRW-107" value="&lt;font style=&quot;font-size: 23px;&quot;&gt;&lt;b&gt;Bookings&lt;/b&gt;&lt;/font&gt;" style="rounded=1;whiteSpace=wrap;html=1;" parent="1" vertex="1">
          <mxGeometry x="760" y="585" width="110" height="50" as="geometry" />
        </mxCell>
        <mxCell id="e1q9ZwAMUpWzCuDyqHRW-108" value="&lt;u&gt;&lt;font style=&quot;font-size: 15px;&quot;&gt;B_ID&lt;/font&gt;&lt;/u&gt;" style="ellipse;whiteSpace=wrap;html=1;" parent="1" vertex="1">
          <mxGeometry x="720" y="495" width="60" height="30" as="geometry" />
        </mxCell>
        <mxCell id="e1q9ZwAMUpWzCuDyqHRW-109" value="" style="endArrow=none;html=1;rounded=0;exitX=0.5;exitY=1;exitDx=0;exitDy=0;entryX=0.25;entryY=0;entryDx=0;entryDy=0;" parent="1" source="e1q9ZwAMUpWzCuDyqHRW-108" target="e1q9ZwAMUpWzCuDyqHRW-107" edge="1">
          <mxGeometry width="50" height="50" relative="1" as="geometry">
            <mxPoint x="710" y="650" as="sourcePoint" />
            <mxPoint x="760" y="600" as="targetPoint" />
            <Array as="points">
              <mxPoint x="750" y="560" />
              <mxPoint x="788" y="560" />
            </Array>
          </mxGeometry>
        </mxCell>
        <mxCell id="e1q9ZwAMUpWzCuDyqHRW-110" value="&lt;font style=&quot;font-size: 15px;&quot;&gt;BookDate&lt;/font&gt;" style="ellipse;whiteSpace=wrap;html=1;" parent="1" vertex="1">
          <mxGeometry x="620" y="500" width="80" height="30" as="geometry" />
        </mxCell>
        <mxCell id="e1q9ZwAMUpWzCuDyqHRW-111" value="" style="endArrow=none;html=1;rounded=0;exitX=0.5;exitY=1;exitDx=0;exitDy=0;entryX=0;entryY=0.3;entryDx=0;entryDy=0;entryPerimeter=0;" parent="1" source="e1q9ZwAMUpWzCuDyqHRW-110" target="e1q9ZwAMUpWzCuDyqHRW-107" edge="1">
          <mxGeometry width="50" height="50" relative="1" as="geometry">
            <mxPoint x="710" y="660" as="sourcePoint" />
            <mxPoint x="740" y="580" as="targetPoint" />
            <Array as="points">
              <mxPoint x="660" y="600" />
            </Array>
          </mxGeometry>
        </mxCell>
        <mxCell id="e1q9ZwAMUpWzCuDyqHRW-112" value="&lt;font style=&quot;font-size: 15px;&quot;&gt;Status&lt;/font&gt;" style="ellipse;whiteSpace=wrap;html=1;" parent="1" vertex="1">
          <mxGeometry x="650" y="650" width="60" height="30" as="geometry" />
        </mxCell>
        <mxCell id="e1q9ZwAMUpWzCuDyqHRW-114" value="" style="endArrow=none;html=1;rounded=0;" parent="1" edge="1">
          <mxGeometry width="50" height="50" relative="1" as="geometry">
            <mxPoint x="680" y="650" as="sourcePoint" />
            <mxPoint x="760" y="630" as="targetPoint" />
            <Array as="points">
              <mxPoint x="680" y="630" />
            </Array>
          </mxGeometry>
        </mxCell>
        <mxCell id="e1q9ZwAMUpWzCuDyqHRW-128" value="&lt;b&gt;&lt;font style=&quot;font-size: 23px;&quot;&gt;Ticket&lt;/font&gt;&lt;/b&gt;" style="rounded=0;whiteSpace=wrap;html=1;" parent="1" vertex="1">
          <mxGeometry x="440" y="350" width="130" height="60" as="geometry" />
        </mxCell>
        <mxCell id="e1q9ZwAMUpWzCuDyqHRW-129" value="&lt;u&gt;&lt;font style=&quot;font-size: 15px;&quot;&gt;T_ID&lt;/font&gt;&lt;/u&gt;" style="ellipse;whiteSpace=wrap;html=1;" parent="1" vertex="1">
          <mxGeometry x="450" y="280" width="50" height="30" as="geometry" />
        </mxCell>
        <mxCell id="e1q9ZwAMUpWzCuDyqHRW-130" value="&lt;font style=&quot;font-size: 15px;&quot;&gt;Type&lt;/font&gt;" style="ellipse;shape=doubleEllipse;html=1;dashed=0;whiteSpace=wrap;aspect=fixed;" parent="1" vertex="1">
          <mxGeometry x="510" y="280" width="45" height="45" as="geometry" />
        </mxCell>
        <mxCell id="e1q9ZwAMUpWzCuDyqHRW-131" value="&lt;font style=&quot;font-size: 15px;&quot;&gt;Issue Date&lt;/font&gt;" style="ellipse;whiteSpace=wrap;html=1;" parent="1" vertex="1">
          <mxGeometry x="570" y="305" width="100" height="30" as="geometry" />
        </mxCell>
        <mxCell id="e1q9ZwAMUpWzCuDyqHRW-132" value="&lt;font style=&quot;font-size: 15px;&quot;&gt;Expiry Date&lt;/font&gt;" style="ellipse;whiteSpace=wrap;html=1;" parent="1" vertex="1">
          <mxGeometry x="555" y="258" width="110" height="30" as="geometry" />
        </mxCell>
        <mxCell id="e1q9ZwAMUpWzCuDyqHRW-133" value="" style="endArrow=none;html=1;rounded=0;exitX=0.308;exitY=0;exitDx=0;exitDy=0;exitPerimeter=0;" parent="1" source="e1q9ZwAMUpWzCuDyqHRW-128" edge="1">
          <mxGeometry width="50" height="50" relative="1" as="geometry">
            <mxPoint x="430" y="360" as="sourcePoint" />
            <mxPoint x="480" y="310" as="targetPoint" />
          </mxGeometry>
        </mxCell>
        <mxCell id="e1q9ZwAMUpWzCuDyqHRW-134" value="" style="endArrow=none;html=1;rounded=0;" parent="1" edge="1">
          <mxGeometry width="50" height="50" relative="1" as="geometry">
            <mxPoint x="530" y="351" as="sourcePoint" />
            <mxPoint x="530" y="325" as="targetPoint" />
          </mxGeometry>
        </mxCell>
        <mxCell id="e1q9ZwAMUpWzCuDyqHRW-135" value="" style="endArrow=none;html=1;rounded=0;" parent="1" edge="1">
          <mxGeometry width="50" height="50" relative="1" as="geometry">
            <mxPoint x="570" y="385" as="sourcePoint" />
            <mxPoint x="620" y="335" as="targetPoint" />
            <Array as="points">
              <mxPoint x="620" y="385" />
            </Array>
          </mxGeometry>
        </mxCell>
        <mxCell id="e1q9ZwAMUpWzCuDyqHRW-136" value="" style="endArrow=none;html=1;rounded=0;" parent="1" edge="1">
          <mxGeometry width="50" height="50" relative="1" as="geometry">
            <mxPoint x="560" y="350" as="sourcePoint" />
            <mxPoint x="610" y="288" as="targetPoint" />
            <Array as="points">
              <mxPoint x="560" y="300" />
              <mxPoint x="610" y="300" />
            </Array>
          </mxGeometry>
        </mxCell>
        <mxCell id="e1q9ZwAMUpWzCuDyqHRW-138" value="&lt;b&gt;&lt;font style=&quot;font-size: 23px;&quot;&gt;Issues&lt;/font&gt;&lt;/b&gt;" style="rhombus;whiteSpace=wrap;html=1;" parent="1" vertex="1">
          <mxGeometry x="680" y="360" width="100" height="80" as="geometry" />
        </mxCell>
        <mxCell id="e1q9ZwAMUpWzCuDyqHRW-139" value="&lt;b&gt;&lt;font style=&quot;font-size: 15px;&quot;&gt;1&lt;/font&gt;&lt;/b&gt;" style="endArrow=none;html=1;rounded=0;entryX=0.5;entryY=1;entryDx=0;entryDy=0;exitX=0.46;exitY=0.011;exitDx=0;exitDy=0;exitPerimeter=0;" parent="1" source="e1q9ZwAMUpWzCuDyqHRW-107" target="e1q9ZwAMUpWzCuDyqHRW-138" edge="1">
          <mxGeometry x="-0.0018" width="50" height="50" relative="1" as="geometry">
            <mxPoint x="810" y="590" as="sourcePoint" />
            <mxPoint x="790" y="440" as="targetPoint" />
            <Array as="points">
              <mxPoint x="810" y="510" />
              <mxPoint x="810" y="480" />
              <mxPoint x="730" y="480" />
            </Array>
            <mxPoint as="offset" />
          </mxGeometry>
        </mxCell>
        <mxCell id="e1q9ZwAMUpWzCuDyqHRW-140" value="&lt;b&gt;&lt;font style=&quot;font-size: 15px;&quot;&gt;M&lt;/font&gt;&lt;/b&gt;" style="endArrow=none;html=1;rounded=0;exitX=1;exitY=0.833;exitDx=0;exitDy=0;exitPerimeter=0;entryX=0;entryY=0.5;entryDx=0;entryDy=0;shape=link;" parent="1" source="e1q9ZwAMUpWzCuDyqHRW-128" target="e1q9ZwAMUpWzCuDyqHRW-138" edge="1">
          <mxGeometry width="50" height="50" relative="1" as="geometry">
            <mxPoint x="630" y="460" as="sourcePoint" />
            <mxPoint x="680" y="410" as="targetPoint" />
          </mxGeometry>
        </mxCell>
        <mxCell id="e1q9ZwAMUpWzCuDyqHRW-142" value="&lt;font style=&quot;font-size: 23px;&quot;&gt;&lt;b&gt;HAS&lt;/b&gt;&lt;/font&gt;" style="rhombus;whiteSpace=wrap;html=1;" parent="1" vertex="1">
          <mxGeometry x="870" y="820" width="80" height="80" as="geometry" />
        </mxCell>
        <mxCell id="e1q9ZwAMUpWzCuDyqHRW-143" value="&lt;b&gt;&lt;font style=&quot;font-size: 15px;&quot;&gt;M&lt;/font&gt;&lt;/b&gt;" style="endArrow=none;html=1;rounded=0;exitX=1.007;exitY=0.854;exitDx=0;exitDy=0;shape=link;entryX=0.5;entryY=0;entryDx=0;entryDy=0;exitPerimeter=0;" parent="1" source="e1q9ZwAMUpWzCuDyqHRW-107" target="e1q9ZwAMUpWzCuDyqHRW-142" edge="1">
          <mxGeometry width="50" height="50" relative="1" as="geometry">
            <mxPoint x="870" y="607.35" as="sourcePoint" />
            <mxPoint x="1030" y="627.35" as="targetPoint" />
            <Array as="points">
              <mxPoint x="950" y="628" />
              <mxPoint x="950" y="720" />
              <mxPoint x="910" y="720" />
            </Array>
          </mxGeometry>
        </mxCell>
        <mxCell id="e1q9ZwAMUpWzCuDyqHRW-144" value="&lt;b&gt;&lt;font style=&quot;font-size: 15px;&quot;&gt;1&lt;/font&gt;&lt;/b&gt;" style="endArrow=none;html=1;rounded=0;entryX=0.25;entryY=0;entryDx=0;entryDy=0;shape=link;exitX=0.5;exitY=1;exitDx=0;exitDy=0;" parent="1" source="e1q9ZwAMUpWzCuDyqHRW-142" edge="1">
          <mxGeometry width="50" height="50" relative="1" as="geometry">
            <mxPoint x="910" y="1000" as="sourcePoint" />
            <mxPoint x="1334.5" y="1075" as="targetPoint" />
            <Array as="points">
              <mxPoint x="910" y="1000" />
              <mxPoint x="1067" y="1000" />
              <mxPoint x="1335" y="1000" />
            </Array>
          </mxGeometry>
        </mxCell>
        <mxCell id="e1q9ZwAMUpWzCuDyqHRW-148" value="&lt;b&gt;&lt;font style=&quot;font-size: 23px;&quot;&gt;d&lt;/font&gt;&lt;/b&gt;" style="ellipse;whiteSpace=wrap;html=1;" parent="1" vertex="1">
          <mxGeometry x="2031" y="320" width="28" height="30" as="geometry" />
        </mxCell>
        <mxCell id="e1q9ZwAMUpWzCuDyqHRW-149" value="" style="endArrow=none;html=1;rounded=0;exitX=0.5;exitY=0;exitDx=0;exitDy=0;entryX=0.5;entryY=1;entryDx=0;entryDy=0;" parent="1" source="e1q9ZwAMUpWzCuDyqHRW-148" edge="1">
          <mxGeometry width="50" height="50" relative="1" as="geometry">
            <mxPoint x="1950" y="480" as="sourcePoint" />
            <mxPoint x="2045" y="150" as="targetPoint" />
          </mxGeometry>
        </mxCell>
        <mxCell id="e1q9ZwAMUpWzCuDyqHRW-150" value="&lt;b&gt;&lt;font style=&quot;font-size: 23px;&quot;&gt;Hotel&lt;/font&gt;&lt;/b&gt;" style="rounded=1;whiteSpace=wrap;html=1;" parent="1" vertex="1">
          <mxGeometry x="1785" y="490" width="110" height="50" as="geometry" />
        </mxCell>
        <mxCell id="e1q9ZwAMUpWzCuDyqHRW-151" value="&lt;b&gt;&lt;font style=&quot;font-size: 23px;&quot;&gt;Guide&lt;/font&gt;&lt;/b&gt;" style="rounded=1;whiteSpace=wrap;html=1;" parent="1" vertex="1">
          <mxGeometry x="2170" y="570" width="110" height="50" as="geometry" />
        </mxCell>
        <mxCell id="e1q9ZwAMUpWzCuDyqHRW-152" value="&lt;b&gt;&lt;font style=&quot;font-size: 23px;&quot;&gt;Transport&lt;/font&gt;&lt;/b&gt;" style="rounded=1;whiteSpace=wrap;html=1;" parent="1" vertex="1">
          <mxGeometry x="2420" y="500" width="110" height="50" as="geometry" />
        </mxCell>
        <mxCell id="e1q9ZwAMUpWzCuDyqHRW-153" value="" style="endArrow=none;html=1;rounded=0;exitX=0.5;exitY=0;exitDx=0;exitDy=0;entryX=0;entryY=0.5;entryDx=0;entryDy=0;" parent="1" source="e1q9ZwAMUpWzCuDyqHRW-150" target="e1q9ZwAMUpWzCuDyqHRW-148" edge="1">
          <mxGeometry width="50" height="50" relative="1" as="geometry">
            <mxPoint x="1980" y="390" as="sourcePoint" />
            <mxPoint x="2030" y="340" as="targetPoint" />
            <Array as="points">
              <mxPoint x="1840" y="400" />
              <mxPoint x="2000" y="400" />
              <mxPoint x="2000" y="335" />
            </Array>
          </mxGeometry>
        </mxCell>
        <mxCell id="e1q9ZwAMUpWzCuDyqHRW-154" value="" style="endArrow=none;html=1;rounded=0;exitX=0.364;exitY=0;exitDx=0;exitDy=0;exitPerimeter=0;entryX=0.5;entryY=1;entryDx=0;entryDy=0;" parent="1" source="e1q9ZwAMUpWzCuDyqHRW-151" target="e1q9ZwAMUpWzCuDyqHRW-148" edge="1">
          <mxGeometry width="50" height="50" relative="1" as="geometry">
            <mxPoint x="2160" y="480" as="sourcePoint" />
            <mxPoint x="2210" y="370" as="targetPoint" />
            <Array as="points">
              <mxPoint x="2210" y="440" />
              <mxPoint x="2045" y="440" />
            </Array>
          </mxGeometry>
        </mxCell>
        <mxCell id="e1q9ZwAMUpWzCuDyqHRW-155" value="" style="endArrow=none;html=1;rounded=0;exitX=0.361;exitY=-0.004;exitDx=0;exitDy=0;entryX=1;entryY=0.5;entryDx=0;entryDy=0;exitPerimeter=0;" parent="1" source="e1q9ZwAMUpWzCuDyqHRW-152" target="e1q9ZwAMUpWzCuDyqHRW-148" edge="1">
          <mxGeometry width="50" height="50" relative="1" as="geometry">
            <mxPoint x="2010" y="380" as="sourcePoint" />
            <mxPoint x="2060" y="330" as="targetPoint" />
            <Array as="points">
              <mxPoint x="2460" y="335" />
            </Array>
          </mxGeometry>
        </mxCell>
        <mxCell id="e1q9ZwAMUpWzCuDyqHRW-157" value="&lt;font style=&quot;font-size: 15px;&quot;&gt;HotelName&lt;/font&gt;" style="ellipse;whiteSpace=wrap;html=1;" parent="1" vertex="1">
          <mxGeometry x="1670" y="510" width="100" height="30" as="geometry" />
        </mxCell>
        <mxCell id="e1q9ZwAMUpWzCuDyqHRW-158" value="" style="endArrow=none;html=1;rounded=0;exitX=1;exitY=0.5;exitDx=0;exitDy=0;entryX=0.001;entryY=0.695;entryDx=0;entryDy=0;entryPerimeter=0;" parent="1" source="e1q9ZwAMUpWzCuDyqHRW-157" target="e1q9ZwAMUpWzCuDyqHRW-150" edge="1">
          <mxGeometry width="50" height="50" relative="1" as="geometry">
            <mxPoint x="1740" y="570" as="sourcePoint" />
            <mxPoint x="1780" y="525" as="targetPoint" />
          </mxGeometry>
        </mxCell>
        <mxCell id="e1q9ZwAMUpWzCuDyqHRW-161" value="&lt;font style=&quot;font-size: 15px;&quot;&gt;Specialization&lt;/font&gt;" style="ellipse;whiteSpace=wrap;html=1;" parent="1" vertex="1">
          <mxGeometry x="2170" y="658" width="120" height="30" as="geometry" />
        </mxCell>
        <mxCell id="e1q9ZwAMUpWzCuDyqHRW-162" value="&lt;font style=&quot;font-size: 15px;&quot;&gt;Languages&lt;/font&gt;" style="ellipse;whiteSpace=wrap;html=1;" parent="1" vertex="1">
          <mxGeometry x="2300" y="525" width="91" height="30" as="geometry" />
        </mxCell>
        <mxCell id="e1q9ZwAMUpWzCuDyqHRW-164" value="&lt;font style=&quot;font-size: 15px;&quot;&gt;Vehicle_Type&lt;/font&gt;" style="ellipse;whiteSpace=wrap;html=1;" parent="1" vertex="1">
          <mxGeometry x="2590" y="500" width="110" height="30" as="geometry" />
        </mxCell>
        <mxCell id="e1q9ZwAMUpWzCuDyqHRW-165" value="&lt;font style=&quot;font-size: 15px;&quot;&gt;Capacity&lt;/font&gt;" style="ellipse;whiteSpace=wrap;html=1;" parent="1" vertex="1">
          <mxGeometry x="2620" y="455" width="75" height="30" as="geometry" />
        </mxCell>
        <mxCell id="e1q9ZwAMUpWzCuDyqHRW-166" value="" style="endArrow=none;html=1;rounded=0;exitX=1;exitY=1;exitDx=0;exitDy=0;entryX=0.724;entryY=-0.011;entryDx=0;entryDy=0;entryPerimeter=0;" parent="1" target="e1q9ZwAMUpWzCuDyqHRW-152" edge="1">
          <mxGeometry width="50" height="50" relative="1" as="geometry">
            <mxPoint x="2550" y="455" as="sourcePoint" />
            <mxPoint x="2500" y="470" as="targetPoint" />
            <Array as="points">
              <mxPoint x="2550" y="470" />
              <mxPoint x="2500" y="470" />
            </Array>
          </mxGeometry>
        </mxCell>
        <mxCell id="e1q9ZwAMUpWzCuDyqHRW-168" value="" style="endArrow=none;html=1;rounded=0;" parent="1" edge="1">
          <mxGeometry width="50" height="50" relative="1" as="geometry">
            <mxPoint x="1860" y="490" as="sourcePoint" />
            <mxPoint x="1910" y="440" as="targetPoint" />
            <Array as="points">
              <mxPoint x="1860" y="460" />
              <mxPoint x="1910" y="460" />
            </Array>
          </mxGeometry>
        </mxCell>
        <mxCell id="e1q9ZwAMUpWzCuDyqHRW-169" value="" style="endArrow=none;html=1;rounded=0;exitX=0.445;exitY=0.008;exitDx=0;exitDy=0;exitPerimeter=0;entryX=0.481;entryY=1.007;entryDx=0;entryDy=0;entryPerimeter=0;" parent="1" source="e1q9ZwAMUpWzCuDyqHRW-161" target="e1q9ZwAMUpWzCuDyqHRW-151" edge="1">
          <mxGeometry width="50" height="50" relative="1" as="geometry">
            <mxPoint x="2220" y="660" as="sourcePoint" />
            <mxPoint x="2220" y="620" as="targetPoint" />
          </mxGeometry>
        </mxCell>
        <mxCell id="e1q9ZwAMUpWzCuDyqHRW-170" value="" style="endArrow=none;html=1;rounded=0;exitX=0.632;exitY=0.006;exitDx=0;exitDy=0;exitPerimeter=0;" parent="1" source="e1q9ZwAMUpWzCuDyqHRW-151" edge="1">
          <mxGeometry width="50" height="50" relative="1" as="geometry">
            <mxPoint x="2230" y="560" as="sourcePoint" />
            <mxPoint x="2280" y="510" as="targetPoint" />
            <Array as="points">
              <mxPoint x="2240" y="540" />
              <mxPoint x="2280" y="540" />
            </Array>
          </mxGeometry>
        </mxCell>
        <mxCell id="e1q9ZwAMUpWzCuDyqHRW-171" value="" style="endArrow=none;html=1;rounded=0;" parent="1" edge="1">
          <mxGeometry width="50" height="50" relative="1" as="geometry">
            <mxPoint x="2279" y="600" as="sourcePoint" />
            <mxPoint x="2345" y="555" as="targetPoint" />
            <Array as="points">
              <mxPoint x="2345" y="600" />
            </Array>
          </mxGeometry>
        </mxCell>
        <mxCell id="e1q9ZwAMUpWzCuDyqHRW-172" value="" style="endArrow=none;html=1;rounded=0;" parent="1" edge="1">
          <mxGeometry width="50" height="50" relative="1" as="geometry">
            <mxPoint x="2530" y="530" as="sourcePoint" />
            <mxPoint x="2645" y="530" as="targetPoint" />
            <Array as="points">
              <mxPoint x="2580" y="530" />
              <mxPoint x="2580" y="550" />
              <mxPoint x="2645" y="550" />
            </Array>
          </mxGeometry>
        </mxCell>
        <mxCell id="e1q9ZwAMUpWzCuDyqHRW-173" value="" style="endArrow=none;html=1;rounded=0;" parent="1" edge="1">
          <mxGeometry width="50" height="50" relative="1" as="geometry">
            <mxPoint x="2530" y="513" as="sourcePoint" />
            <mxPoint x="2660" y="485" as="targetPoint" />
            <Array as="points">
              <mxPoint x="2580" y="513" />
              <mxPoint x="2580" y="500" />
              <mxPoint x="2580" y="490" />
              <mxPoint x="2660" y="490" />
            </Array>
          </mxGeometry>
        </mxCell>
        <mxCell id="e1q9ZwAMUpWzCuDyqHRW-174" value="&lt;font style=&quot;font-size: 15px;&quot;&gt;&lt;u&gt;T_Id&lt;/u&gt;&lt;/font&gt;" style="ellipse;whiteSpace=wrap;html=1;" parent="1" vertex="1">
          <mxGeometry x="2515" y="575" width="70" height="30" as="geometry" />
        </mxCell>
        <mxCell id="e1q9ZwAMUpWzCuDyqHRW-175" value="&lt;font style=&quot;font-size: 15px;&quot;&gt;&lt;u&gt;G_Id&lt;/u&gt;&lt;/font&gt;" style="ellipse;whiteSpace=wrap;html=1;" parent="1" vertex="1">
          <mxGeometry x="2120" y="520" width="70" height="30" as="geometry" />
        </mxCell>
        <mxCell id="e1q9ZwAMUpWzCuDyqHRW-176" value="&lt;font style=&quot;font-size: 15px;&quot;&gt;&lt;u&gt;H_Id&lt;/u&gt;&lt;/font&gt;" style="ellipse;whiteSpace=wrap;html=1;" parent="1" vertex="1">
          <mxGeometry x="1730" y="450" width="70" height="30" as="geometry" />
        </mxCell>
        <mxCell id="e1q9ZwAMUpWzCuDyqHRW-177" value="" style="endArrow=none;html=1;rounded=0;exitX=0.363;exitY=0.008;exitDx=0;exitDy=0;exitPerimeter=0;" parent="1" source="e1q9ZwAMUpWzCuDyqHRW-174" edge="1">
          <mxGeometry width="50" height="50" relative="1" as="geometry">
            <mxPoint x="2460" y="600" as="sourcePoint" />
            <mxPoint x="2510" y="550" as="targetPoint" />
            <Array as="points">
              <mxPoint x="2540" y="560" />
              <mxPoint x="2510" y="560" />
            </Array>
          </mxGeometry>
        </mxCell>
        <mxCell id="e1q9ZwAMUpWzCuDyqHRW-178" value="" style="endArrow=none;html=1;rounded=0;" parent="1" edge="1">
          <mxGeometry width="50" height="50" relative="1" as="geometry">
            <mxPoint x="2190" y="570" as="sourcePoint" />
            <mxPoint x="2160" y="550" as="targetPoint" />
            <Array as="points">
              <mxPoint x="2190" y="560" />
              <mxPoint x="2160" y="560" />
            </Array>
          </mxGeometry>
        </mxCell>
        <mxCell id="e1q9ZwAMUpWzCuDyqHRW-179" value="" style="endArrow=none;html=1;rounded=0;exitX=0;exitY=0.418;exitDx=0;exitDy=0;exitPerimeter=0;entryX=0.419;entryY=1.007;entryDx=0;entryDy=0;entryPerimeter=0;" parent="1" source="e1q9ZwAMUpWzCuDyqHRW-150" target="e1q9ZwAMUpWzCuDyqHRW-176" edge="1">
          <mxGeometry width="50" height="50" relative="1" as="geometry">
            <mxPoint x="1717.5" y="530" as="sourcePoint" />
            <mxPoint x="1767.5" y="480" as="targetPoint" />
            <Array as="points">
              <mxPoint x="1760" y="511" />
            </Array>
          </mxGeometry>
        </mxCell>
        <mxCell id="e1q9ZwAMUpWzCuDyqHRW-180" value="&lt;font style=&quot;font-size: 23px;&quot;&gt;&lt;b&gt;Admin&lt;/b&gt;&lt;/font&gt;" style="rounded=1;whiteSpace=wrap;html=1;" parent="1" vertex="1">
          <mxGeometry x="1760" y="-60" width="110" height="50" as="geometry" />
        </mxCell>
        <mxCell id="e1q9ZwAMUpWzCuDyqHRW-182" value="&lt;font style=&quot;font-size: 15px;&quot;&gt;LastLogin&lt;/font&gt;" style="ellipse;whiteSpace=wrap;html=1;" parent="1" vertex="1">
          <mxGeometry x="1860" y="-100" width="80" height="30" as="geometry" />
        </mxCell>
        <mxCell id="e1q9ZwAMUpWzCuDyqHRW-183" value="" style="endArrow=none;html=1;rounded=0;entryX=0.5;entryY=1;entryDx=0;entryDy=0;entryPerimeter=0;" parent="1" target="e1q9ZwAMUpWzCuDyqHRW-182" edge="1">
          <mxGeometry width="50" height="50" relative="1" as="geometry">
            <mxPoint x="1870" y="-30" as="sourcePoint" />
            <mxPoint x="1920" y="-80" as="targetPoint" />
            <Array as="points">
              <mxPoint x="1900" y="-30" />
            </Array>
          </mxGeometry>
        </mxCell>
        <mxCell id="e1q9ZwAMUpWzCuDyqHRW-186" value="" style="endArrow=none;html=1;rounded=0;exitX=0.893;exitY=0.187;exitDx=0;exitDy=0;exitPerimeter=0;" parent="1" source="e1q9ZwAMUpWzCuDyqHRW-92" edge="1">
          <mxGeometry width="50" height="50" relative="1" as="geometry">
            <mxPoint x="1550" y="40" as="sourcePoint" />
            <mxPoint x="1811" y="-10" as="targetPoint" />
            <Array as="points">
              <mxPoint x="1550" y="20" />
              <mxPoint x="1811" y="20" />
            </Array>
          </mxGeometry>
        </mxCell>
        <mxCell id="e1q9ZwAMUpWzCuDyqHRW-187" value="&lt;b&gt;&lt;font style=&quot;font-size: 23px;&quot;&gt;Tour Operator&lt;/font&gt;&lt;/b&gt;" style="rounded=1;whiteSpace=wrap;html=1;" parent="1" vertex="1">
          <mxGeometry x="1475" y="340" width="155" height="50" as="geometry" />
        </mxCell>
        <mxCell id="e1q9ZwAMUpWzCuDyqHRW-188" value="&lt;font style=&quot;font-size: 15px;&quot;&gt;Company_Name&lt;/font&gt;" style="ellipse;whiteSpace=wrap;html=1;" parent="1" vertex="1">
          <mxGeometry x="1670" y="270" width="130" height="30" as="geometry" />
        </mxCell>
        <mxCell id="e1q9ZwAMUpWzCuDyqHRW-190" value="&lt;font style=&quot;font-size: 15px;&quot;&gt;License_no&lt;/font&gt;" style="ellipse;whiteSpace=wrap;html=1;" parent="1" vertex="1">
          <mxGeometry x="1570" y="250" width="100" height="30" as="geometry" />
        </mxCell>
        <mxCell id="e1q9ZwAMUpWzCuDyqHRW-191" value="" style="endArrow=none;html=1;rounded=0;exitX=1;exitY=0.5;exitDx=0;exitDy=0;entryX=0;entryY=0.5;entryDx=0;entryDy=0;" parent="1" source="e1q9ZwAMUpWzCuDyqHRW-187" edge="1">
          <mxGeometry width="50" height="50" relative="1" as="geometry">
            <mxPoint x="1625" y="410" as="sourcePoint" />
            <mxPoint x="1690" y="364.9999999999998" as="targetPoint" />
          </mxGeometry>
        </mxCell>
        <mxCell id="e1q9ZwAMUpWzCuDyqHRW-192" value="" style="endArrow=none;html=1;rounded=0;" parent="1" edge="1">
          <mxGeometry width="50" height="50" relative="1" as="geometry">
            <mxPoint x="1610" y="340" as="sourcePoint" />
            <mxPoint x="1610" y="280" as="targetPoint" />
          </mxGeometry>
        </mxCell>
        <mxCell id="e1q9ZwAMUpWzCuDyqHRW-193" value="" style="endArrow=none;html=1;rounded=0;exitX=1;exitY=0.24;exitDx=0;exitDy=0;exitPerimeter=0;" parent="1" source="e1q9ZwAMUpWzCuDyqHRW-187" edge="1">
          <mxGeometry width="50" height="50" relative="1" as="geometry">
            <mxPoint x="1680" y="350" as="sourcePoint" />
            <mxPoint x="1730" y="300" as="targetPoint" />
            <Array as="points">
              <mxPoint x="1650" y="352" />
              <mxPoint x="1650" y="340" />
              <mxPoint x="1730" y="340" />
            </Array>
          </mxGeometry>
        </mxCell>
        <mxCell id="e1q9ZwAMUpWzCuDyqHRW-195" value="1" style="endArrow=none;html=1;rounded=0;entryX=0;entryY=0.395;entryDx=0;entryDy=0;entryPerimeter=0;exitX=0.5;exitY=0;exitDx=0;exitDy=0;" parent="1" source="e1q9ZwAMUpWzCuDyqHRW-277" target="e1q9ZwAMUpWzCuDyqHRW-187" edge="1">
          <mxGeometry width="50" height="50" relative="1" as="geometry">
            <mxPoint x="1430" y="410" as="sourcePoint" />
            <mxPoint x="1470" y="360" as="targetPoint" />
            <Array as="points">
              <mxPoint x="1190" y="480" />
              <mxPoint x="1280" y="480" />
              <mxPoint x="1280" y="360" />
              <mxPoint x="1430" y="360" />
            </Array>
          </mxGeometry>
        </mxCell>
        <mxCell id="e1q9ZwAMUpWzCuDyqHRW-196" value="" style="endArrow=none;html=1;rounded=0;entryX=0.5;entryY=1;entryDx=0;entryDy=0;exitX=0.397;exitY=0.003;exitDx=0;exitDy=0;exitPerimeter=0;" parent="1" source="e1q9ZwAMUpWzCuDyqHRW-187" target="e1q9ZwAMUpWzCuDyqHRW-92" edge="1">
          <mxGeometry width="50" height="50" relative="1" as="geometry">
            <mxPoint x="1537" y="340" as="sourcePoint" />
            <mxPoint x="1525" y="60" as="targetPoint" />
          </mxGeometry>
        </mxCell>
        <mxCell id="e1q9ZwAMUpWzCuDyqHRW-197" value="&lt;font style=&quot;font-size: 23px;&quot;&gt;&lt;b&gt;Manages&lt;/b&gt;&lt;/font&gt;" style="rhombus;whiteSpace=wrap;html=1;" parent="1" vertex="1">
          <mxGeometry x="1295" y="580.8" width="130" height="80" as="geometry" />
        </mxCell>
        <mxCell id="e1q9ZwAMUpWzCuDyqHRW-198" value="&lt;b&gt;&lt;font style=&quot;font-size: 15px;&quot;&gt;1&lt;/font&gt;&lt;/b&gt;" style="endArrow=none;html=1;rounded=0;entryX=0.355;entryY=0.984;entryDx=0;entryDy=0;entryPerimeter=0;exitX=0.5;exitY=0;exitDx=0;exitDy=0;" parent="1" source="e1q9ZwAMUpWzCuDyqHRW-197" edge="1">
          <mxGeometry width="50" height="50" relative="1" as="geometry">
            <mxPoint x="1314.97" y="580.8000000000002" as="sourcePoint" />
            <mxPoint x="1509.9950000000001" y="390" as="targetPoint" />
            <Array as="points">
              <mxPoint x="1360" y="491" />
              <mxPoint x="1509.97" y="490.79999999999995" />
            </Array>
          </mxGeometry>
        </mxCell>
        <mxCell id="e1q9ZwAMUpWzCuDyqHRW-199" value="&lt;b&gt;&lt;font style=&quot;font-size: 15px;&quot;&gt;M&lt;/font&gt;&lt;/b&gt;" style="endArrow=none;html=1;rounded=0;entryX=0.5;entryY=1;entryDx=0;entryDy=0;shape=link;exitX=0.455;exitY=0.005;exitDx=0;exitDy=0;exitPerimeter=0;" parent="1" source="e1q9ZwAMUpWzCuDyqHRW-39" target="e1q9ZwAMUpWzCuDyqHRW-197" edge="1">
          <mxGeometry width="50" height="50" relative="1" as="geometry">
            <mxPoint x="1360" y="1070" as="sourcePoint" />
            <mxPoint x="1340" y="660.8" as="targetPoint" />
            <Array as="points" />
          </mxGeometry>
        </mxCell>
        <mxCell id="e1q9ZwAMUpWzCuDyqHRW-200" value="&lt;font style=&quot;font-size: 23px;&quot;&gt;&lt;b&gt;MAKES&lt;/b&gt;&lt;/font&gt;" style="rhombus;whiteSpace=wrap;html=1;" parent="1" vertex="1">
          <mxGeometry x="790" y="280" width="130" height="95" as="geometry" />
        </mxCell>
        <mxCell id="e1q9ZwAMUpWzCuDyqHRW-201" value="&lt;b&gt;&lt;font style=&quot;font-size: 15px;&quot;&gt;1&lt;/font&gt;&lt;/b&gt;" style="endArrow=none;html=1;rounded=0;exitX=0.5;exitY=0;exitDx=0;exitDy=0;" parent="1" source="e1q9ZwAMUpWzCuDyqHRW-200" edge="1">
          <mxGeometry width="50" height="50" relative="1" as="geometry">
            <mxPoint x="992" y="330" as="sourcePoint" />
            <mxPoint x="950" y="30" as="targetPoint" />
            <Array as="points">
              <mxPoint x="855" y="240" />
              <mxPoint x="950" y="240" />
            </Array>
          </mxGeometry>
        </mxCell>
        <mxCell id="e1q9ZwAMUpWzCuDyqHRW-203" value="&lt;b&gt;&lt;font style=&quot;font-size: 15px;&quot;&gt;M&lt;/font&gt;&lt;/b&gt;" style="endArrow=none;html=1;rounded=0;entryX=0.5;entryY=1;entryDx=0;entryDy=0;shape=link;exitX=0.855;exitY=0;exitDx=0;exitDy=0;exitPerimeter=0;" parent="1" source="e1q9ZwAMUpWzCuDyqHRW-107" target="e1q9ZwAMUpWzCuDyqHRW-200" edge="1">
          <mxGeometry width="50" height="50" relative="1" as="geometry">
            <mxPoint x="840" y="585" as="sourcePoint" />
            <mxPoint x="990" y="527" as="targetPoint" />
            <Array as="points" />
          </mxGeometry>
        </mxCell>
        <mxCell id="e1q9ZwAMUpWzCuDyqHRW-212" value="&lt;b&gt;&lt;font style=&quot;font-size: 23px;&quot;&gt;TripServiceAssignment&lt;/font&gt;&lt;/b&gt;" style="rounded=1;whiteSpace=wrap;html=1;" parent="1" vertex="1">
          <mxGeometry x="1510" y="710" width="270" height="50" as="geometry" />
        </mxCell>
        <mxCell id="e1q9ZwAMUpWzCuDyqHRW-215" value="&lt;b style=&quot;font-size: 15px;&quot;&gt;M&lt;/b&gt;" style="endArrow=none;html=1;rounded=0;exitX=1;exitY=0.5;exitDx=0;exitDy=0;entryX=0.364;entryY=0.999;entryDx=0;entryDy=0;entryPerimeter=0;shape=link;" parent="1" source="e1q9ZwAMUpWzCuDyqHRW-292" target="e1q9ZwAMUpWzCuDyqHRW-39" edge="1">
          <mxGeometry width="50" height="50" relative="1" as="geometry">
            <mxPoint x="1285" y="1250" as="sourcePoint" />
            <mxPoint x="1350" y="1130" as="targetPoint" />
            <Array as="points">
              <mxPoint x="1320" y="1230" />
              <mxPoint x="1320" y="1160" />
              <mxPoint x="1350" y="1160" />
            </Array>
          </mxGeometry>
        </mxCell>
        <mxCell id="e1q9ZwAMUpWzCuDyqHRW-216" value="&lt;u&gt;&lt;font style=&quot;font-size: 15px;&quot;&gt;A_ID&lt;/font&gt;&lt;/u&gt;" style="ellipse;whiteSpace=wrap;html=1;" parent="1" vertex="1">
          <mxGeometry x="1522.5" y="658" width="60" height="30" as="geometry" />
        </mxCell>
        <mxCell id="e1q9ZwAMUpWzCuDyqHRW-217" value="&lt;font style=&quot;font-size: 15px;&quot;&gt;Response Date&lt;/font&gt;" style="ellipse;whiteSpace=wrap;html=1;" parent="1" vertex="1">
          <mxGeometry x="1610" y="650" width="120" height="30" as="geometry" />
        </mxCell>
        <mxCell id="e1q9ZwAMUpWzCuDyqHRW-219" value="&lt;font style=&quot;font-size: 15px;&quot;&gt;Assigned Date&lt;/font&gt;" style="ellipse;whiteSpace=wrap;html=1;" parent="1" vertex="1">
          <mxGeometry x="1512.5" y="790" width="110" height="30" as="geometry" />
        </mxCell>
        <mxCell id="e1q9ZwAMUpWzCuDyqHRW-220" value="&lt;font style=&quot;font-size: 15px;&quot;&gt;Assingment Status&lt;/font&gt;" style="ellipse;whiteSpace=wrap;html=1;" parent="1" vertex="1">
          <mxGeometry x="1642.5" y="790" width="137.5" height="30" as="geometry" />
        </mxCell>
        <mxCell id="e1q9ZwAMUpWzCuDyqHRW-222" value="" style="endArrow=none;html=1;rounded=0;" parent="1" edge="1">
          <mxGeometry width="50" height="50" relative="1" as="geometry">
            <mxPoint x="1553" y="710" as="sourcePoint" />
            <mxPoint x="1553" y="688" as="targetPoint" />
          </mxGeometry>
        </mxCell>
        <mxCell id="e1q9ZwAMUpWzCuDyqHRW-224" value="" style="endArrow=none;html=1;rounded=0;exitX=0.603;exitY=0.012;exitDx=0;exitDy=0;exitPerimeter=0;" parent="1" source="e1q9ZwAMUpWzCuDyqHRW-212" edge="1">
          <mxGeometry width="50" height="50" relative="1" as="geometry">
            <mxPoint x="1673" y="710" as="sourcePoint" />
            <mxPoint x="1672.5" y="680" as="targetPoint" />
          </mxGeometry>
        </mxCell>
        <mxCell id="e1q9ZwAMUpWzCuDyqHRW-225" value="" style="endArrow=none;html=1;rounded=0;" parent="1" edge="1">
          <mxGeometry width="50" height="50" relative="1" as="geometry">
            <mxPoint x="1570" y="790" as="sourcePoint" />
            <mxPoint x="1570" y="760" as="targetPoint" />
          </mxGeometry>
        </mxCell>
        <mxCell id="e1q9ZwAMUpWzCuDyqHRW-226" value="" style="endArrow=none;html=1;rounded=0;exitX=0.42;exitY=0.027;exitDx=0;exitDy=0;exitPerimeter=0;" parent="1" source="e1q9ZwAMUpWzCuDyqHRW-220" edge="1">
          <mxGeometry width="50" height="50" relative="1" as="geometry">
            <mxPoint x="1650" y="810" as="sourcePoint" />
            <mxPoint x="1700" y="760" as="targetPoint" />
          </mxGeometry>
        </mxCell>
        <mxCell id="e1q9ZwAMUpWzCuDyqHRW-227" value="&lt;b&gt;&lt;font style=&quot;font-size: 23px;&quot;&gt;Has&lt;/font&gt;&lt;/b&gt;" style="rhombus;whiteSpace=wrap;html=1;" parent="1" vertex="1">
          <mxGeometry x="1420" y="860" width="80" height="70" as="geometry" />
        </mxCell>
        <mxCell id="e1q9ZwAMUpWzCuDyqHRW-228" value="&lt;b&gt;&lt;font style=&quot;font-size: 15px;&quot;&gt;1&lt;/font&gt;&lt;/b&gt;" style="endArrow=none;html=1;rounded=0;exitX=0.545;exitY=0.009;exitDx=0;exitDy=0;exitPerimeter=0;entryX=0.5;entryY=1;entryDx=0;entryDy=0;" parent="1" source="e1q9ZwAMUpWzCuDyqHRW-39" target="e1q9ZwAMUpWzCuDyqHRW-227" edge="1">
          <mxGeometry width="50" height="50" relative="1" as="geometry">
            <mxPoint x="1462.5" y="1000" as="sourcePoint" />
            <mxPoint x="1512.5" y="950" as="targetPoint" />
            <Array as="points">
              <mxPoint x="1370" y="1040" />
              <mxPoint x="1460" y="1040" />
            </Array>
          </mxGeometry>
        </mxCell>
        <mxCell id="e1q9ZwAMUpWzCuDyqHRW-229" value="&lt;b&gt;&lt;font style=&quot;font-size: 15px;&quot;&gt;M&lt;/font&gt;&lt;/b&gt;" style="endArrow=none;html=1;rounded=0;exitX=0.5;exitY=0;exitDx=0;exitDy=0;shape=link;" parent="1" source="e1q9ZwAMUpWzCuDyqHRW-227" edge="1">
          <mxGeometry width="50" height="50" relative="1" as="geometry">
            <mxPoint x="1460" y="790" as="sourcePoint" />
            <mxPoint x="1510" y="740" as="targetPoint" />
            <Array as="points">
              <mxPoint x="1460" y="740" />
            </Array>
          </mxGeometry>
        </mxCell>
        <mxCell id="e1q9ZwAMUpWzCuDyqHRW-230" value="&lt;b&gt;&lt;font style=&quot;font-size: 15px;&quot;&gt;1&lt;/font&gt;&lt;/b&gt;" style="endArrow=none;html=1;rounded=0;entryX=0.38;entryY=1.008;entryDx=0;entryDy=0;entryPerimeter=0;exitX=0.5;exitY=0;exitDx=0;exitDy=0;" parent="1" source="e1q9ZwAMUpWzCuDyqHRW-233" target="e1q9ZwAMUpWzCuDyqHRW-18" edge="1">
          <mxGeometry width="50" height="50" relative="1" as="geometry">
            <mxPoint x="1600" y="480" as="sourcePoint" />
            <mxPoint x="2015" y="150" as="targetPoint" />
            <Array as="points">
              <mxPoint x="1600" y="440" />
              <mxPoint x="1800" y="440" />
              <mxPoint x="1800" y="320" />
              <mxPoint x="2000" y="320" />
            </Array>
          </mxGeometry>
        </mxCell>
        <mxCell id="e1q9ZwAMUpWzCuDyqHRW-232" value="&lt;b&gt;&lt;font style=&quot;font-size: 15px;&quot;&gt;M&lt;/font&gt;&lt;/b&gt;" style="endArrow=none;html=1;rounded=0;entryX=0.5;entryY=1;entryDx=0;entryDy=0;exitX=0.333;exitY=-0.012;exitDx=0;exitDy=0;exitPerimeter=0;shape=link;" parent="1" source="e1q9ZwAMUpWzCuDyqHRW-212" edge="1">
          <mxGeometry width="50" height="50" relative="1" as="geometry">
            <mxPoint x="1553" y="630.8" as="sourcePoint" />
            <mxPoint x="1600" y="560" as="targetPoint" />
          </mxGeometry>
        </mxCell>
        <mxCell id="e1q9ZwAMUpWzCuDyqHRW-233" value="&lt;b&gt;&lt;font style=&quot;font-size: 23px;&quot;&gt;Assigned&lt;/font&gt;&lt;/b&gt;" style="rhombus;whiteSpace=wrap;html=1;" parent="1" vertex="1">
          <mxGeometry x="1533" y="480" width="137" height="100" as="geometry" />
        </mxCell>
        <mxCell id="e1q9ZwAMUpWzCuDyqHRW-252" value="&lt;b&gt;&lt;font style=&quot;font-size: 23px;&quot;&gt;Cancellation&lt;/font&gt;&lt;/b&gt;" style="rounded=0;whiteSpace=wrap;html=1;" parent="1" vertex="1">
          <mxGeometry x="1055" y="358" width="175" height="60" as="geometry" />
        </mxCell>
        <mxCell id="e1q9ZwAMUpWzCuDyqHRW-253" value="&lt;u&gt;&lt;font style=&quot;font-size: 15px;&quot;&gt;C_ID&lt;/font&gt;&lt;/u&gt;" style="ellipse;whiteSpace=wrap;html=1;" parent="1" vertex="1">
          <mxGeometry x="1145" y="293" width="50" height="30" as="geometry" />
        </mxCell>
        <mxCell id="e1q9ZwAMUpWzCuDyqHRW-254" value="&lt;font style=&quot;font-size: 15px;&quot;&gt;Reason&lt;/font&gt;" style="ellipse;whiteSpace=wrap;html=1;" parent="1" vertex="1">
          <mxGeometry x="945" y="373" width="85" height="30" as="geometry" />
        </mxCell>
        <mxCell id="e1q9ZwAMUpWzCuDyqHRW-255" value="&lt;font style=&quot;font-size: 15px;&quot;&gt;Status&lt;/font&gt;" style="ellipse;whiteSpace=wrap;html=1;" parent="1" vertex="1">
          <mxGeometry x="995" y="453" width="85" height="30" as="geometry" />
        </mxCell>
        <mxCell id="e1q9ZwAMUpWzCuDyqHRW-256" value="" style="endArrow=none;html=1;rounded=0;exitX=0.641;exitY=0.01;exitDx=0;exitDy=0;exitPerimeter=0;" parent="1" source="e1q9ZwAMUpWzCuDyqHRW-252" edge="1">
          <mxGeometry width="50" height="50" relative="1" as="geometry">
            <mxPoint x="1168" y="353" as="sourcePoint" />
            <mxPoint x="1167.5" y="323" as="targetPoint" />
          </mxGeometry>
        </mxCell>
        <mxCell id="e1q9ZwAMUpWzCuDyqHRW-257" value="" style="endArrow=none;html=1;rounded=0;" parent="1" target="e1q9ZwAMUpWzCuDyqHRW-252" edge="1">
          <mxGeometry width="50" height="50" relative="1" as="geometry">
            <mxPoint x="1030" y="388" as="sourcePoint" />
            <mxPoint x="1080" y="338" as="targetPoint" />
          </mxGeometry>
        </mxCell>
        <mxCell id="e1q9ZwAMUpWzCuDyqHRW-258" value="" style="endArrow=none;html=1;rounded=0;entryX=0.131;entryY=1.005;entryDx=0;entryDy=0;entryPerimeter=0;" parent="1" target="e1q9ZwAMUpWzCuDyqHRW-252" edge="1">
          <mxGeometry width="50" height="50" relative="1" as="geometry">
            <mxPoint x="1045" y="453" as="sourcePoint" />
            <mxPoint x="1075" y="423" as="targetPoint" />
            <Array as="points">
              <mxPoint x="1045" y="443" />
              <mxPoint x="1078" y="443" />
            </Array>
          </mxGeometry>
        </mxCell>
        <mxCell id="e1q9ZwAMUpWzCuDyqHRW-259" value="&lt;b&gt;&lt;font style=&quot;font-size: 23px;&quot;&gt;Cancelled&lt;/font&gt;&lt;/b&gt;" style="rhombus;whiteSpace=wrap;html=1;" parent="1" vertex="1">
          <mxGeometry x="1025" y="63" width="135" height="110" as="geometry" />
        </mxCell>
        <mxCell id="e1q9ZwAMUpWzCuDyqHRW-262" value="&lt;b&gt;&lt;font style=&quot;font-size: 15px;&quot;&gt;M&lt;/font&gt;&lt;/b&gt;" style="endArrow=none;html=1;rounded=0;entryX=0.5;entryY=1;entryDx=0;entryDy=0;exitX=0.208;exitY=-0.011;exitDx=0;exitDy=0;exitPerimeter=0;shape=link;" parent="1" source="e1q9ZwAMUpWzCuDyqHRW-252" target="e1q9ZwAMUpWzCuDyqHRW-259" edge="1">
          <mxGeometry width="50" height="50" relative="1" as="geometry">
            <mxPoint x="1045" y="223" as="sourcePoint" />
            <mxPoint x="1095" y="173" as="targetPoint" />
          </mxGeometry>
        </mxCell>
        <mxCell id="e1q9ZwAMUpWzCuDyqHRW-263" value="&lt;b&gt;&lt;font style=&quot;font-size: 15px;&quot;&gt;1&lt;/font&gt;&lt;/b&gt;" style="endArrow=none;html=1;rounded=0;exitX=1;exitY=0.5;exitDx=0;exitDy=0;entryX=0.119;entryY=-0.008;entryDx=0;entryDy=0;entryPerimeter=0;" parent="1" source="e1q9ZwAMUpWzCuDyqHRW-259" target="e1q9ZwAMUpWzCuDyqHRW-187" edge="1">
          <mxGeometry width="50" height="50" relative="1" as="geometry">
            <mxPoint x="1170" y="115" as="sourcePoint" />
            <mxPoint x="1496" y="340" as="targetPoint" />
            <Array as="points">
              <mxPoint x="1250" y="118" />
              <mxPoint x="1490" y="120" />
            </Array>
          </mxGeometry>
        </mxCell>
        <mxCell id="e1q9ZwAMUpWzCuDyqHRW-264" value="&lt;b&gt;&lt;font style=&quot;font-size: 15px;&quot;&gt;1&lt;/font&gt;&lt;/b&gt;" style="endArrow=none;html=1;rounded=0;entryX=0.5;entryY=1;entryDx=0;entryDy=0;" parent="1" target="e1q9ZwAMUpWzCuDyqHRW-266" edge="1">
          <mxGeometry width="50" height="50" relative="1" as="geometry">
            <mxPoint x="870" y="595" as="sourcePoint" />
            <mxPoint x="920" y="545" as="targetPoint" />
            <Array as="points">
              <mxPoint x="920" y="595" />
              <mxPoint x="920" y="580" />
              <mxPoint x="1130" y="580" />
              <mxPoint x="1130" y="570" />
            </Array>
          </mxGeometry>
        </mxCell>
        <mxCell id="e1q9ZwAMUpWzCuDyqHRW-266" value="&lt;font style=&quot;font-size: 23px;&quot;&gt;&lt;b&gt;HAS&lt;/b&gt;&lt;/font&gt;" style="rhombus;whiteSpace=wrap;html=1;" parent="1" vertex="1">
          <mxGeometry x="1090" y="465" width="80" height="80" as="geometry" />
        </mxCell>
        <mxCell id="e1q9ZwAMUpWzCuDyqHRW-267" value="&lt;b&gt;&lt;font style=&quot;font-size: 15px;&quot;&gt;1&lt;/font&gt;&lt;/b&gt;" style="endArrow=none;html=1;rounded=0;entryX=0.427;entryY=1.007;entryDx=0;entryDy=0;entryPerimeter=0;shape=link;" parent="1" target="e1q9ZwAMUpWzCuDyqHRW-252" edge="1">
          <mxGeometry width="50" height="50" relative="1" as="geometry">
            <mxPoint x="1130" y="465" as="sourcePoint" />
            <mxPoint x="1130" y="420" as="targetPoint" />
          </mxGeometry>
        </mxCell>
        <mxCell id="e1q9ZwAMUpWzCuDyqHRW-269" value="&lt;b&gt;&lt;font style=&quot;font-size: 23px;&quot;&gt;Refund&lt;/font&gt;&lt;/b&gt;" style="rounded=0;whiteSpace=wrap;html=1;" parent="1" vertex="1">
          <mxGeometry x="1120" y="750" width="105" height="60" as="geometry" />
        </mxCell>
        <mxCell id="e1q9ZwAMUpWzCuDyqHRW-270" value="&lt;u&gt;&lt;font style=&quot;font-size: 15px;&quot;&gt;R_ID&lt;/font&gt;&lt;/u&gt;" style="ellipse;whiteSpace=wrap;html=1;" parent="1" vertex="1">
          <mxGeometry x="1090" y="690" width="60" height="30" as="geometry" />
        </mxCell>
        <mxCell id="e1q9ZwAMUpWzCuDyqHRW-271" value="&lt;font style=&quot;font-size: 15px;&quot;&gt;Refund Date&lt;/font&gt;" style="ellipse;whiteSpace=wrap;html=1;" parent="1" vertex="1">
          <mxGeometry x="995" y="740" width="95" height="30" as="geometry" />
        </mxCell>
        <mxCell id="e1q9ZwAMUpWzCuDyqHRW-272" value="&lt;font style=&quot;font-size: 15px;&quot;&gt;Amount&lt;/font&gt;" style="ellipse;whiteSpace=wrap;html=1;" parent="1" vertex="1">
          <mxGeometry x="1030" y="790" width="75" height="30" as="geometry" />
        </mxCell>
        <mxCell id="e1q9ZwAMUpWzCuDyqHRW-273" value="" style="endArrow=none;html=1;rounded=0;exitX=0;exitY=0.5;exitDx=0;exitDy=0;" parent="1" source="e1q9ZwAMUpWzCuDyqHRW-269" edge="1">
          <mxGeometry width="50" height="50" relative="1" as="geometry">
            <mxPoint x="995" y="820" as="sourcePoint" />
            <mxPoint x="1045" y="770" as="targetPoint" />
            <Array as="points">
              <mxPoint x="1045" y="780" />
            </Array>
          </mxGeometry>
        </mxCell>
        <mxCell id="e1q9ZwAMUpWzCuDyqHRW-274" value="" style="endArrow=none;html=1;rounded=0;exitX=0.048;exitY=0;exitDx=0;exitDy=0;exitPerimeter=0;" parent="1" source="e1q9ZwAMUpWzCuDyqHRW-269" edge="1">
          <mxGeometry width="50" height="50" relative="1" as="geometry">
            <mxPoint x="1075" y="770" as="sourcePoint" />
            <mxPoint x="1125" y="720" as="targetPoint" />
          </mxGeometry>
        </mxCell>
        <mxCell id="e1q9ZwAMUpWzCuDyqHRW-275" value="" style="endArrow=none;html=1;rounded=0;exitX=0.285;exitY=1.006;exitDx=0;exitDy=0;exitPerimeter=0;entryX=0.534;entryY=0.997;entryDx=0;entryDy=0;entryPerimeter=0;" parent="1" source="e1q9ZwAMUpWzCuDyqHRW-269" target="e1q9ZwAMUpWzCuDyqHRW-272" edge="1">
          <mxGeometry width="50" height="50" relative="1" as="geometry">
            <mxPoint x="1017.5" y="870" as="sourcePoint" />
            <mxPoint x="1067.5" y="820" as="targetPoint" />
            <Array as="points">
              <mxPoint x="1150" y="830" />
              <mxPoint x="1070" y="830" />
            </Array>
          </mxGeometry>
        </mxCell>
        <mxCell id="e1q9ZwAMUpWzCuDyqHRW-277" value="&lt;b&gt;&lt;font style=&quot;font-size: 23px;&quot;&gt;Process&lt;/font&gt;&lt;/b&gt;" style="rhombus;whiteSpace=wrap;html=1;" parent="1" vertex="1">
          <mxGeometry x="1130" y="550" width="120" height="100" as="geometry" />
        </mxCell>
        <mxCell id="e1q9ZwAMUpWzCuDyqHRW-278" value="&lt;b&gt;&lt;font style=&quot;font-size: 15px;&quot;&gt;M&lt;/font&gt;&lt;/b&gt;" style="endArrow=none;html=1;rounded=0;exitX=0.646;exitY=0;exitDx=0;exitDy=0;exitPerimeter=0;shape=link;" parent="1" source="e1q9ZwAMUpWzCuDyqHRW-269" edge="1">
          <mxGeometry width="50" height="50" relative="1" as="geometry">
            <mxPoint x="1140" y="700" as="sourcePoint" />
            <mxPoint x="1190" y="650" as="targetPoint" />
          </mxGeometry>
        </mxCell>
        <mxCell id="e1q9ZwAMUpWzCuDyqHRW-280" value="&lt;b&gt;&lt;font style=&quot;font-size: 23px;&quot;&gt;Has&lt;/font&gt;&lt;/b&gt;" style="rhombus;whiteSpace=wrap;html=1;" parent="1" vertex="1">
          <mxGeometry x="1020" y="870" width="80" height="70" as="geometry" />
        </mxCell>
        <mxCell id="e1q9ZwAMUpWzCuDyqHRW-281" value="&lt;b&gt;&lt;font style=&quot;font-size: 15px;&quot;&gt;1&lt;/font&gt;&lt;/b&gt;" style="endArrow=none;html=1;rounded=0;entryX=0.5;entryY=1;entryDx=0;entryDy=0;exitX=1;exitY=0.5;exitDx=0;exitDy=0;shape=link;" parent="1" source="e1q9ZwAMUpWzCuDyqHRW-280" target="e1q9ZwAMUpWzCuDyqHRW-269" edge="1">
          <mxGeometry width="50" height="50" relative="1" as="geometry">
            <mxPoint x="1117.5" y="910" as="sourcePoint" />
            <mxPoint x="1167.5" y="860" as="targetPoint" />
            <Array as="points">
              <mxPoint x="1173" y="905" />
            </Array>
          </mxGeometry>
        </mxCell>
        <mxCell id="e1q9ZwAMUpWzCuDyqHRW-282" value="&lt;b&gt;&lt;font style=&quot;font-size: 15px;&quot;&gt;1&lt;/font&gt;&lt;/b&gt;" style="endArrow=none;html=1;rounded=0;entryX=0;entryY=0.5;entryDx=0;entryDy=0;" parent="1" target="e1q9ZwAMUpWzCuDyqHRW-280" edge="1">
          <mxGeometry width="50" height="50" relative="1" as="geometry">
            <mxPoint x="870" y="615" as="sourcePoint" />
            <mxPoint x="920" y="565" as="targetPoint" />
            <Array as="points">
              <mxPoint x="980" y="615" />
              <mxPoint x="980" y="760" />
              <mxPoint x="980" y="905" />
            </Array>
          </mxGeometry>
        </mxCell>
        <mxCell id="e1q9ZwAMUpWzCuDyqHRW-285" value="&lt;span style=&quot;font-size: 23px;&quot;&gt;&lt;b&gt;Category&lt;/b&gt;&lt;/span&gt;" style="rounded=1;whiteSpace=wrap;html=1;" parent="1" vertex="1">
          <mxGeometry x="855" y="1255" width="110" height="50" as="geometry" />
        </mxCell>
        <mxCell id="e1q9ZwAMUpWzCuDyqHRW-286" value="&lt;u&gt;&lt;font style=&quot;font-size: 15px;&quot;&gt;C_ID&lt;/font&gt;&lt;/u&gt;" style="ellipse;whiteSpace=wrap;html=1;" parent="1" vertex="1">
          <mxGeometry x="820" y="1200" width="60" height="30" as="geometry" />
        </mxCell>
        <mxCell id="e1q9ZwAMUpWzCuDyqHRW-287" value="&lt;font style=&quot;font-size: 15px;&quot;&gt;Name&lt;/font&gt;" style="ellipse;whiteSpace=wrap;html=1;" parent="1" vertex="1">
          <mxGeometry x="905" y="1200" width="60" height="30" as="geometry" />
        </mxCell>
        <mxCell id="e1q9ZwAMUpWzCuDyqHRW-288" value="&lt;font style=&quot;font-size: 15px;&quot;&gt;Description&lt;/font&gt;" style="ellipse;whiteSpace=wrap;html=1;" parent="1" vertex="1">
          <mxGeometry x="980" y="1255" width="100" height="30" as="geometry" />
        </mxCell>
        <mxCell id="e1q9ZwAMUpWzCuDyqHRW-289" value="" style="endArrow=none;html=1;rounded=0;exitX=0.25;exitY=0;exitDx=0;exitDy=0;" parent="1" source="e1q9ZwAMUpWzCuDyqHRW-285" edge="1">
          <mxGeometry width="50" height="50" relative="1" as="geometry">
            <mxPoint x="805" y="1280" as="sourcePoint" />
            <mxPoint x="855" y="1230" as="targetPoint" />
            <Array as="points">
              <mxPoint x="883" y="1240" />
              <mxPoint x="855" y="1240" />
            </Array>
          </mxGeometry>
        </mxCell>
        <mxCell id="e1q9ZwAMUpWzCuDyqHRW-290" value="" style="endArrow=none;html=1;rounded=0;exitX=0.728;exitY=-0.01;exitDx=0;exitDy=0;exitPerimeter=0;" parent="1" source="e1q9ZwAMUpWzCuDyqHRW-285" edge="1">
          <mxGeometry width="50" height="50" relative="1" as="geometry">
            <mxPoint x="885" y="1280" as="sourcePoint" />
            <mxPoint x="935" y="1230" as="targetPoint" />
          </mxGeometry>
        </mxCell>
        <mxCell id="e1q9ZwAMUpWzCuDyqHRW-291" value="" style="endArrow=none;html=1;rounded=0;" parent="1" edge="1">
          <mxGeometry width="50" height="50" relative="1" as="geometry">
            <mxPoint x="965" y="1270" as="sourcePoint" />
            <mxPoint x="980" y="1270" as="targetPoint" />
          </mxGeometry>
        </mxCell>
        <mxCell id="e1q9ZwAMUpWzCuDyqHRW-292" value="&lt;b&gt;&lt;font style=&quot;font-size: 23px;&quot;&gt;Trip Category&lt;/font&gt;&lt;/b&gt;" style="rhombus;whiteSpace=wrap;html=1;" parent="1" vertex="1">
          <mxGeometry x="1080" y="1170" width="175" height="120" as="geometry" />
        </mxCell>
        <mxCell id="e1q9ZwAMUpWzCuDyqHRW-293" value="&lt;b&gt;&lt;font style=&quot;font-size: 15px;&quot;&gt;1&lt;/font&gt;&lt;/b&gt;" style="endArrow=none;html=1;rounded=0;exitX=0.75;exitY=1;exitDx=0;exitDy=0;entryX=0.5;entryY=1;entryDx=0;entryDy=0;" parent="1" source="e1q9ZwAMUpWzCuDyqHRW-285" target="e1q9ZwAMUpWzCuDyqHRW-292" edge="1">
          <mxGeometry width="50" height="50" relative="1" as="geometry">
            <mxPoint x="1095" y="1295" as="sourcePoint" />
            <mxPoint x="1145" y="1245" as="targetPoint" />
            <Array as="points">
              <mxPoint x="938" y="1340" />
              <mxPoint x="1090" y="1340" />
              <mxPoint x="1168" y="1340" />
            </Array>
          </mxGeometry>
        </mxCell>
        <mxCell id="e1q9ZwAMUpWzCuDyqHRW-294" value="&lt;u&gt;&lt;font style=&quot;font-size: 15px;&quot;&gt;Rev_ID&lt;/font&gt;&lt;/u&gt;" style="ellipse;whiteSpace=wrap;html=1;" parent="1" vertex="1">
          <mxGeometry x="602.5" y="970" width="67.5" height="30" as="geometry" />
        </mxCell>
        <mxCell id="e1q9ZwAMUpWzCuDyqHRW-295" value="" style="endArrow=none;html=1;rounded=0;exitX=0.565;exitY=0.991;exitDx=0;exitDy=0;exitPerimeter=0;" parent="1" source="e1q9ZwAMUpWzCuDyqHRW-294" edge="1">
          <mxGeometry width="50" height="50" relative="1" as="geometry">
            <mxPoint x="590" y="1105" as="sourcePoint" />
            <mxPoint x="640" y="1055" as="targetPoint" />
          </mxGeometry>
        </mxCell>
        <mxCell id="e1q9ZwAMUpWzCuDyqHRW-296" value="&lt;font style=&quot;font-size: 15px;&quot;&gt;Rating&lt;/font&gt;" style="ellipse;whiteSpace=wrap;html=1;" parent="1" vertex="1">
          <mxGeometry x="565" y="920" width="55" height="30" as="geometry" />
        </mxCell>
        <mxCell id="e1q9ZwAMUpWzCuDyqHRW-297" value="" style="endArrow=none;html=1;rounded=0;entryX=0.14;entryY=-0.003;entryDx=0;entryDy=0;entryPerimeter=0;exitX=0.5;exitY=1;exitDx=0;exitDy=0;" parent="1" source="e1q9ZwAMUpWzCuDyqHRW-296" edge="1">
          <mxGeometry width="50" height="50" relative="1" as="geometry">
            <mxPoint x="560" y="990" as="sourcePoint" />
            <mxPoint x="600.4000000000001" y="1054.85" as="targetPoint" />
            <Array as="points">
              <mxPoint x="593" y="1030" />
              <mxPoint x="600" y="1030" />
            </Array>
          </mxGeometry>
        </mxCell>
        <mxCell id="e1q9ZwAMUpWzCuDyqHRW-298" value="&lt;font style=&quot;font-size: 15px;&quot;&gt;Comment&lt;/font&gt;" style="ellipse;whiteSpace=wrap;html=1;" parent="1" vertex="1">
          <mxGeometry x="680" y="970" width="80" height="30" as="geometry" />
        </mxCell>
        <mxCell id="e1q9ZwAMUpWzCuDyqHRW-299" value="&lt;font style=&quot;font-size: 15px;&quot;&gt;ReviewDate&lt;/font&gt;" style="ellipse;whiteSpace=wrap;html=1;" parent="1" vertex="1">
          <mxGeometry x="750" y="1010" width="90" height="30" as="geometry" />
        </mxCell>
        <mxCell id="e1q9ZwAMUpWzCuDyqHRW-300" value="" style="endArrow=none;html=1;rounded=0;exitX=0.5;exitY=1;exitDx=0;exitDy=0;" parent="1" source="e1q9ZwAMUpWzCuDyqHRW-299" edge="1">
          <mxGeometry width="50" height="50" relative="1" as="geometry">
            <mxPoint x="585" y="1130" as="sourcePoint" />
            <mxPoint x="695" y="1070" as="targetPoint" />
            <Array as="points">
              <mxPoint x="795" y="1070" />
            </Array>
          </mxGeometry>
        </mxCell>
        <mxCell id="e1q9ZwAMUpWzCuDyqHRW-301" value="" style="endArrow=none;html=1;rounded=0;exitX=0.774;exitY=-0.012;exitDx=0;exitDy=0;exitPerimeter=0;" parent="1" edge="1">
          <mxGeometry width="50" height="50" relative="1" as="geometry">
            <mxPoint x="670.1399999999999" y="1054.4" as="sourcePoint" />
            <mxPoint x="720" y="1000" as="targetPoint" />
            <Array as="points">
              <mxPoint x="670" y="1030" />
              <mxPoint x="720" y="1030" />
            </Array>
          </mxGeometry>
        </mxCell>
        <mxCell id="e1q9ZwAMUpWzCuDyqHRW-303" value="&lt;b&gt;&lt;font style=&quot;font-size: 23px;&quot;&gt;Review&lt;/font&gt;&lt;/b&gt;" style="shape=ext;margin=3;double=1;whiteSpace=wrap;html=1;align=center;" parent="1" vertex="1">
          <mxGeometry x="584" y="1050" width="125" height="60" as="geometry" />
        </mxCell>
        <mxCell id="e1q9ZwAMUpWzCuDyqHRW-309" value="&lt;b&gt;&lt;font style=&quot;font-size: 15px;&quot;&gt;1&lt;/font&gt;&lt;/b&gt;" style="endArrow=none;html=1;rounded=0;entryX=0.536;entryY=0.989;entryDx=0;entryDy=0;entryPerimeter=0;exitX=1;exitY=0.5;exitDx=0;exitDy=0;" parent="1" source="e1q9ZwAMUpWzCuDyqHRW-319" target="e1q9ZwAMUpWzCuDyqHRW-107" edge="1">
          <mxGeometry width="50" height="50" relative="1" as="geometry">
            <mxPoint x="440" y="800" as="sourcePoint" />
            <mxPoint x="825" y="635" as="targetPoint" />
            <Array as="points">
              <mxPoint x="819" y="790" />
            </Array>
          </mxGeometry>
        </mxCell>
        <mxCell id="e1q9ZwAMUpWzCuDyqHRW-311" value="&lt;b&gt;&lt;font style=&quot;font-size: 15px;&quot;&gt;1&lt;/font&gt;&lt;/b&gt;" style="endArrow=none;html=1;rounded=0;entryX=1;entryY=0.5;entryDx=0;entryDy=0;" parent="1" target="e1q9ZwAMUpWzCuDyqHRW-315" edge="1">
          <mxGeometry width="50" height="50" relative="1" as="geometry">
            <mxPoint x="1320" y="1075" as="sourcePoint" />
            <mxPoint x="840" y="1110" as="targetPoint" />
            <Array as="points">
              <mxPoint x="1320" y="1020" />
              <mxPoint x="920" y="1020" />
              <mxPoint x="920" y="1195" />
            </Array>
          </mxGeometry>
        </mxCell>
        <mxCell id="e1q9ZwAMUpWzCuDyqHRW-315" value="" style="rhombus;whiteSpace=wrap;html=1;" parent="1" vertex="1">
          <mxGeometry x="642.5" y="1155" width="80" height="80" as="geometry" />
        </mxCell>
        <mxCell id="e1q9ZwAMUpWzCuDyqHRW-316" value="&lt;b&gt;&lt;font style=&quot;font-size: 23px;&quot;&gt;Get&lt;/font&gt;&lt;/b&gt;" style="rhombus;whiteSpace=wrap;html=1;" parent="1" vertex="1">
          <mxGeometry x="647.5" y="1160" width="70" height="70" as="geometry" />
        </mxCell>
        <mxCell id="e1q9ZwAMUpWzCuDyqHRW-317" value="&lt;b&gt;&lt;font style=&quot;font-size: 15px;&quot;&gt;M&lt;/font&gt;&lt;/b&gt;" style="endArrow=none;html=1;rounded=0;exitX=0.5;exitY=0;exitDx=0;exitDy=0;entryX=0.79;entryY=1.024;entryDx=0;entryDy=0;entryPerimeter=0;shape=link;" parent="1" source="e1q9ZwAMUpWzCuDyqHRW-315" target="e1q9ZwAMUpWzCuDyqHRW-303" edge="1">
          <mxGeometry width="50" height="50" relative="1" as="geometry">
            <mxPoint x="640" y="1155" as="sourcePoint" />
            <mxPoint x="690" y="1105" as="targetPoint" />
          </mxGeometry>
        </mxCell>
        <mxCell id="e1q9ZwAMUpWzCuDyqHRW-319" value="" style="rhombus;whiteSpace=wrap;html=1;" parent="1" vertex="1">
          <mxGeometry x="260" y="720" width="210" height="140" as="geometry" />
        </mxCell>
        <mxCell id="e1q9ZwAMUpWzCuDyqHRW-320" value="&lt;b&gt;&lt;font style=&quot;font-size: 23px;&quot;&gt;Traveler Gives&lt;/font&gt;&lt;/b&gt;" style="rhombus;whiteSpace=wrap;html=1;" parent="1" vertex="1">
          <mxGeometry x="270" y="730" width="190" height="120" as="geometry" />
        </mxCell>
        <mxCell id="e1q9ZwAMUpWzCuDyqHRW-322" value="&lt;b&gt;&lt;font style=&quot;font-size: 15px;&quot;&gt;1&lt;/font&gt;&lt;/b&gt;" style="endArrow=none;html=1;rounded=0;entryX=0.5;entryY=1;entryDx=0;entryDy=0;exitX=0.022;exitY=0.662;exitDx=0;exitDy=0;shape=link;exitPerimeter=0;" parent="1" source="e1q9ZwAMUpWzCuDyqHRW-303" target="e1q9ZwAMUpWzCuDyqHRW-319" edge="1">
          <mxGeometry width="50" height="50" relative="1" as="geometry">
            <mxPoint x="360" y="940" as="sourcePoint" />
            <mxPoint x="410" y="890" as="targetPoint" />
            <Array as="points">
              <mxPoint x="365" y="1090" />
            </Array>
          </mxGeometry>
        </mxCell>
        <mxCell id="ZfnZew6afH2BRkf8CvRt-1" value="&lt;span style=&quot;font-size: 15px;&quot;&gt;AvgRating&lt;/span&gt;" style="ellipse;whiteSpace=wrap;html=1;align=center;dashed=1;" parent="1" vertex="1">
          <mxGeometry x="2230" y="470" width="100" height="40" as="geometry" />
        </mxCell>
        <mxCell id="ZfnZew6afH2BRkf8CvRt-2" value="&lt;span style=&quot;font-size: 15px;&quot;&gt;Revenue&lt;/span&gt;" style="ellipse;whiteSpace=wrap;html=1;align=center;dashed=1;" parent="1" vertex="1">
          <mxGeometry x="1690" y="345" width="100" height="40" as="geometry" />
        </mxCell>
        <mxCell id="ZfnZew6afH2BRkf8CvRt-4" value="&lt;span style=&quot;font-size: 15px;&quot;&gt;OnTimePerformance&lt;/span&gt;" style="ellipse;whiteSpace=wrap;html=1;align=center;dashed=1;" parent="1" vertex="1">
          <mxGeometry x="2480" y="415" width="160" height="40" as="geometry" />
        </mxCell>
        <mxCell id="ZfnZew6afH2BRkf8CvRt-6" value="&lt;font style=&quot;font-size: 15px;&quot;&gt;ApproveStatus&lt;/font&gt;" style="ellipse;whiteSpace=wrap;html=1;" parent="1" vertex="1">
          <mxGeometry x="740" y="1090" width="115" height="30" as="geometry" />
        </mxCell>
        <mxCell id="ZfnZew6afH2BRkf8CvRt-9" value="" style="endArrow=none;html=1;rounded=0;entryX=1;entryY=0.5;entryDx=0;entryDy=0;" parent="1" target="e1q9ZwAMUpWzCuDyqHRW-303" edge="1">
          <mxGeometry width="50" height="50" relative="1" as="geometry">
            <mxPoint x="785" y="1090" as="sourcePoint" />
            <mxPoint x="710" y="1080" as="targetPoint" />
            <Array as="points">
              <mxPoint x="785" y="1080" />
            </Array>
          </mxGeometry>
        </mxCell>
        <mxCell id="po5GHRfdX03CJ85B9Y9S-1" value="&lt;span style=&quot;font-size: 15px;&quot;&gt;Rating&lt;/span&gt;" style="ellipse;whiteSpace=wrap;html=1;align=center;dashed=1;" parent="1" vertex="1">
          <mxGeometry x="1870.5" y="410" width="74" height="33" as="geometry" />
        </mxCell>
        <mxCell id="V38VOejeH_v17oLQA-M2-6" value="" style="endArrow=none;html=1;rounded=0;exitX=0.695;exitY=0.008;exitDx=0;exitDy=0;exitPerimeter=0;" parent="1" edge="1">
          <mxGeometry width="50" height="50" relative="1" as="geometry">
            <mxPoint x="1823" y="-60" as="sourcePoint" />
            <mxPoint x="1823" y="-150" as="targetPoint" />
          </mxGeometry>
        </mxCell>
        <mxCell id="V38VOejeH_v17oLQA-M2-7" value="&lt;font style=&quot;font-size: 15px;&quot;&gt;Admin_Name&lt;/font&gt;" style="ellipse;whiteSpace=wrap;html=1;" parent="1" vertex="1">
          <mxGeometry x="1782.5" y="-180" width="105" height="30" as="geometry" />
        </mxCell>
        <mxCell id="k61T2XfkeWFWM_h0YvH4-3" value="&lt;span style=&quot;font-size: 15px;&quot;&gt;Preferences&lt;/span&gt;" style="ellipse;whiteSpace=wrap;html=1;" parent="1" vertex="1">
          <mxGeometry x="685" y="-80" width="105" height="30" as="geometry" />
        </mxCell>
        <mxCell id="k61T2XfkeWFWM_h0YvH4-4" value="1" style="endArrow=none;html=1;rounded=0;exitX=0;exitY=0.5;exitDx=0;exitDy=0;" parent="1" source="e1q9ZwAMUpWzCuDyqHRW-233" edge="1">
          <mxGeometry width="50" height="50" relative="1" as="geometry">
            <mxPoint x="1550" y="430" as="sourcePoint" />
            <mxPoint x="1550" y="390" as="targetPoint" />
            <Array as="points">
              <mxPoint x="1520" y="530" />
              <mxPoint x="1520" y="470" />
              <mxPoint x="1550" y="470" />
            </Array>
          </mxGeometry>
        </mxCell>
      </root>
    </mxGraphModel>
  </diagram>
</mxfile>
